<svg width="591" height="435" viewBox="0 0 591 435" fill="none" xmlns="http://www.w3.org/2000/svg">
<path d="M0.137695 55.2581C0.137695 49.4751 4.82573 44.7871 10.6087 44.7871H42.0218C47.8048 44.7871 52.4928 49.4751 52.4928 55.2581V424.362C52.4928 430.145 47.8048 434.833 42.0218 434.833H10.6087C4.82573 434.833 0.137695 430.145 0.137695 424.362V55.2581Z" fill="#002C86"/>
<path fill-rule="evenodd" clip-rule="evenodd" d="M42.0218 45.6597H10.6087C5.30765 45.6597 1.01028 49.9571 1.01028 55.2581V424.362C1.01028 429.663 5.30765 433.96 10.6087 433.96H42.0218C47.3229 433.96 51.6203 429.663 51.6203 424.362V55.2581C51.6203 49.9571 47.3229 45.6597 42.0218 45.6597ZM10.6087 44.7871C4.82573 44.7871 0.137695 49.4751 0.137695 55.2581V424.362C0.137695 430.145 4.82573 434.833 10.6087 434.833H42.0218C47.8048 434.833 52.4928 430.145 52.4928 424.362V55.2581C52.4928 49.4751 47.8048 44.7871 42.0218 44.7871H10.6087Z" fill="#345099"/>
<path fill-rule="evenodd" clip-rule="evenodd" d="M37.8454 240.606C37.8454 246.878 32.7578 252.057 26.5193 252.057C20.2807 252.057 15.1931 246.878 15.1931 240.606C15.1931 234.334 20.2807 229.155 26.5193 229.155C32.7578 229.155 37.8454 234.334 37.8454 240.606ZM26.5193 227.846C33.4974 227.846 39.1543 233.628 39.1543 240.606C39.1543 247.584 33.4974 253.366 26.5193 253.366C19.5411 253.366 13.8843 247.584 13.8843 240.606C13.8843 233.628 19.5411 227.846 26.5193 227.846Z" fill="#E9E9E9"/>
<path fill-rule="evenodd" clip-rule="evenodd" d="M31.5977 236.706C31.5977 235.137 30.2712 233.896 28.7492 233.896H24.9419C24.7626 233.896 24.5912 233.97 24.4676 234.1L21.5691 237.149C21.4535 237.271 21.389 237.432 21.389 237.6V242.897C21.389 244.403 22.5918 245.812 24.1774 245.812H28.7492C30.3781 245.812 31.5977 244.493 31.5977 242.897V236.706ZM28.7492 235.205C29.5837 235.205 30.2888 235.894 30.2888 236.706V242.897C30.2888 243.817 29.6096 244.503 28.7492 244.503H24.1774C23.4053 244.503 22.6979 243.774 22.6979 242.897V237.861L25.2228 235.205H28.7492Z" fill="white"/>
<path fill-rule="evenodd" clip-rule="evenodd" d="M25.0917 233.89C24.7302 233.89 24.4372 234.183 24.4372 234.544V236.225C24.4372 236.691 24.0654 237.058 23.6207 237.059L23.6206 237.059C23.244 237.06 22.8635 237.06 22.5709 237.06C22.3383 237.06 22.1852 237.06 22.1219 237.059C22.0995 237.059 22.0883 237.059 22.089 237.059C21.7284 237.035 21.4165 237.308 21.3925 237.669C21.3685 238.029 21.6414 238.341 22.002 238.365M25.0917 233.89C25.4531 233.89 25.7461 234.183 25.7461 234.544L25.0917 233.89ZM25.7461 234.544V236.225V234.544ZM25.7461 236.225C25.7461 237.4 24.8029 238.365 23.6236 238.368L25.7461 236.225Z" fill="white"/>
<path opacity="0.4" fill-rule="evenodd" clip-rule="evenodd" d="M28.9443 241.945C28.9443 241.584 28.6513 241.291 28.2899 241.291H25.2014C24.84 241.291 24.547 241.584 24.547 241.945C24.547 242.307 24.84 242.6 25.2014 242.6H28.2899C28.6513 242.6 28.9443 242.307 28.9443 241.945Z" fill="white"/>
<path opacity="0.4" fill-rule="evenodd" clip-rule="evenodd" d="M28.9443 239.084C28.9443 238.723 28.6513 238.43 28.2899 238.43H26.3694C26.008 238.43 25.715 238.723 25.715 239.084C25.715 239.446 26.008 239.739 26.3694 239.739H28.2899C28.6513 239.739 28.9443 239.446 28.9443 239.084Z" fill="white"/>
<path fill-rule="evenodd" clip-rule="evenodd" d="M37.8454 208.703C37.8454 214.976 32.7578 220.155 26.5193 220.155C20.2807 220.155 15.1931 214.976 15.1931 208.703C15.1931 202.431 20.2807 197.252 26.5193 197.252C32.7578 197.252 37.8454 202.431 37.8454 208.703ZM26.5193 195.943C33.4974 195.943 39.1543 201.725 39.1543 208.703C39.1543 215.682 33.4974 221.464 26.5193 221.464C19.5411 221.464 13.8843 215.682 13.8843 208.703C13.8843 201.725 19.5411 195.943 26.5193 195.943Z" fill="#E9E9E9"/>
<path fill-rule="evenodd" clip-rule="evenodd" d="M23.4085 205.234C25.1241 203.501 27.9096 203.501 29.6252 205.234L29.6253 205.235C30.9708 206.593 31.2652 208.609 30.5082 210.261C30.5035 210.271 30.4991 210.282 30.495 210.292C30.4911 210.302 30.487 210.312 30.4829 210.323C30.3843 210.57 30.2511 210.904 30.2511 211.256C30.2511 211.504 30.3091 211.738 30.3633 211.919C30.3913 212.013 30.422 212.105 30.4491 212.185L30.456 212.205C30.4814 212.281 30.5033 212.346 30.5228 212.409C30.5266 212.421 30.5301 212.433 30.5334 212.444C30.5257 212.441 30.5178 212.439 30.5096 212.436C30.4465 212.416 30.3813 212.394 30.3051 212.367L30.2897 212.362C30.2104 212.334 30.1199 212.303 30.0273 212.275C29.8483 212.219 29.6159 212.159 29.3689 212.158L29.365 212.158C29.0155 212.158 28.6791 212.295 28.4401 212.393C28.4265 212.398 28.4133 212.404 28.4003 212.409C28.3901 212.413 28.3799 212.418 28.3699 212.422C26.7408 213.183 24.7524 212.889 23.4085 211.532C21.6889 209.795 21.686 206.974 23.4085 205.234ZM30.5553 204.313C28.3275 202.063 24.7061 202.063 22.4783 204.313C20.2502 206.563 20.2544 210.207 22.4783 212.453C24.2192 214.211 26.7967 214.594 28.9081 213.616C29.2055 213.495 29.3028 213.467 29.3632 213.467C29.4163 213.467 29.5018 213.482 29.6417 213.525C29.7096 213.546 29.7802 213.571 29.8606 213.598L29.8793 213.605C29.9516 213.63 30.0331 213.658 30.1139 213.684C30.2806 213.737 30.5091 213.801 30.7488 213.801C31.0123 213.801 31.3159 213.723 31.5643 213.473L31.5646 213.472C31.8122 213.222 31.8874 212.919 31.8874 212.658C31.8874 212.419 31.8253 212.19 31.7733 212.022C31.7486 211.942 31.7212 211.861 31.6968 211.789C31.6943 211.781 31.6918 211.774 31.6893 211.767C31.6619 211.685 31.6381 211.614 31.6175 211.545C31.5747 211.402 31.56 211.313 31.56 211.256C31.56 211.189 31.5873 211.088 31.7053 210.791C32.6712 208.666 32.2947 206.07 30.5554 204.314" fill="white"/>
<path opacity="0.4" fill-rule="evenodd" clip-rule="evenodd" d="M25.1816 208.595C25.1816 208.233 24.8883 207.94 24.5263 207.94H24.5205C24.1586 207.94 23.8652 208.233 23.8652 208.595C23.8652 208.957 24.1586 209.251 24.5205 209.251H24.5263C24.8883 209.251 25.1816 208.957 25.1816 208.595Z" fill="white"/>
<path opacity="0.4" fill-rule="evenodd" clip-rule="evenodd" d="M27.207 208.595C27.207 208.233 26.9136 207.94 26.5517 207.94H26.5459C26.184 207.94 25.8906 208.233 25.8906 208.595C25.8906 208.957 26.184 209.251 26.5459 209.251H26.5517C26.9136 209.251 27.207 208.957 27.207 208.595Z" fill="white"/>
<path opacity="0.4" fill-rule="evenodd" clip-rule="evenodd" d="M29.2324 208.595C29.2324 208.233 28.939 207.94 28.5771 207.94H28.5713C28.2094 207.94 27.916 208.233 27.916 208.595C27.916 208.957 28.2094 209.251 28.5713 209.251H28.5771C28.939 209.251 29.2324 208.957 29.2324 208.595Z" fill="white"/>
<path fill-rule="evenodd" clip-rule="evenodd" d="M37.8454 176.806C37.8454 183.078 32.7578 188.257 26.5193 188.257C20.2807 188.257 15.1931 183.078 15.1931 176.806C15.1931 170.534 20.2807 165.355 26.5193 165.355C32.7578 165.355 37.8454 170.534 37.8454 176.806ZM26.5193 164.046C33.4974 164.046 39.1543 169.828 39.1543 176.806C39.1543 183.784 33.4974 189.566 26.5193 189.566C19.5411 189.566 13.8843 183.784 13.8843 176.806C13.8843 169.828 19.5411 164.046 26.5193 164.046Z" fill="#E9E9E9"/>
<path opacity="0.4" fill-rule="evenodd" clip-rule="evenodd" d="M28.7108 175.292C28.3494 175.292 28.0564 175.585 28.0564 175.947V179.23C28.0564 179.591 28.3494 179.884 28.7108 179.884C29.0722 179.884 29.3652 179.591 29.3652 179.23V175.947C29.3652 175.585 29.0722 175.292 28.7108 175.292Z" fill="white"/>
<path opacity="0.4" fill-rule="evenodd" clip-rule="evenodd" d="M26.5008 173.723C26.1394 173.723 25.8464 174.016 25.8464 174.377V179.23C25.8464 179.592 26.1394 179.885 26.5008 179.885C26.8623 179.885 27.1553 179.592 27.1553 179.23V174.377C27.1553 174.016 26.8623 173.723 26.5008 173.723Z" fill="white"/>
<path opacity="0.4" fill-rule="evenodd" clip-rule="evenodd" d="M24.3251 177.026C23.9636 177.026 23.6706 177.319 23.6706 177.681V179.229C23.6706 179.59 23.9636 179.883 24.3251 179.883C24.6865 179.883 24.9795 179.59 24.9795 179.229V177.681C24.9795 177.319 24.6865 177.026 24.3251 177.026Z" fill="white"/>
<path fill-rule="evenodd" clip-rule="evenodd" d="M31.058 172.327C30.4861 171.707 29.6758 171.367 28.7377 171.367H24.2974C23.3575 171.367 22.5469 171.707 21.9752 172.327C21.4089 172.941 21.125 173.778 21.125 174.694V178.919C21.125 179.836 21.4089 180.672 21.9752 181.286C22.5469 181.907 23.3575 182.246 24.2974 182.246H28.7377C29.6776 182.246 30.4883 181.907 31.06 181.286C31.6263 180.672 31.9102 179.836 31.9102 178.919V174.694C31.9102 173.777 31.6247 172.941 31.058 172.327ZM30.0963 173.214C30.4016 173.545 30.6013 174.045 30.6013 174.694V178.919C30.6013 179.569 30.4023 180.069 30.0977 180.399C29.7985 180.724 29.3501 180.937 28.7377 180.937H24.2974C23.685 180.937 23.2367 180.724 22.9375 180.399C22.6329 180.069 22.4339 179.569 22.4339 178.919V174.694C22.4339 174.044 22.6329 173.545 22.9375 173.214C23.2367 172.89 23.685 172.676 24.2974 172.676H28.7377C29.3475 172.676 29.7961 172.889 30.0963 173.214Z" fill="white"/>
<path fill-rule="evenodd" clip-rule="evenodd" d="M37.8454 144.903C37.8454 151.175 32.7578 156.354 26.5193 156.354C20.2807 156.354 15.1931 151.175 15.1931 144.903C15.1931 138.631 20.2807 133.452 26.5193 133.452C32.7578 133.452 37.8454 138.631 37.8454 144.903ZM26.5193 132.143C33.4974 132.143 39.1543 137.925 39.1543 144.903C39.1543 151.881 33.4974 157.663 26.5193 157.663C19.5411 157.663 13.8843 151.881 13.8843 144.903C13.8843 137.925 19.5411 132.143 26.5193 132.143Z" fill="#E9E9E9"/>
<path opacity="0.4" fill-rule="evenodd" clip-rule="evenodd" d="M24.121 141.437C23.7595 141.437 23.4665 141.73 23.4665 142.091V148.79C23.4665 149.152 23.7595 149.445 24.121 149.445C24.4824 149.445 24.7754 149.152 24.7754 148.79V142.091C24.7754 141.73 24.4824 141.437 24.121 141.437Z" fill="white"/>
<path fill-rule="evenodd" clip-rule="evenodd" d="M26.5667 146.31C26.3093 146.056 25.8949 146.059 25.6412 146.317L24.1209 147.859L22.6007 146.317C22.3469 146.059 21.9326 146.056 21.6752 146.31C21.4178 146.564 21.4148 146.978 21.6685 147.235L23.6548 149.251C23.7778 149.376 23.9457 149.446 24.1209 149.446C24.2961 149.446 24.464 149.376 24.587 149.251L26.5734 147.235C26.8271 146.978 26.8241 146.564 26.5667 146.31Z" fill="white"/>
<path opacity="0.4" fill-rule="evenodd" clip-rule="evenodd" d="M28.9569 140.102C28.5955 140.102 28.3024 140.395 28.3024 140.756V147.455C28.3024 147.817 28.5955 148.11 28.9569 148.11C29.3183 148.11 29.6113 147.817 29.6113 147.455V140.756C29.6113 140.395 29.3183 140.102 28.9569 140.102Z" fill="white"/>
<path fill-rule="evenodd" clip-rule="evenodd" d="M28.9569 140.102C28.7817 140.102 28.6138 140.172 28.4908 140.297L26.5044 142.312C26.2507 142.569 26.2537 142.984 26.5111 143.237C26.7685 143.491 27.1829 143.488 27.4366 143.231L28.9569 141.688L30.4771 143.231C30.7308 143.488 31.1452 143.491 31.4026 143.237C31.66 142.984 31.663 142.569 31.4093 142.312L29.423 140.297C29.3 140.172 29.1321 140.102 28.9569 140.102Z" fill="white"/>
<path fill-rule="evenodd" clip-rule="evenodd" d="M37.8454 113.004C37.8454 119.276 32.7578 124.456 26.5193 124.456C20.2807 124.456 15.1931 119.276 15.1931 113.004C15.1931 106.732 20.2807 101.553 26.5193 101.553C32.7578 101.553 37.8454 106.732 37.8454 113.004ZM26.5193 100.244C33.4974 100.244 39.1543 106.026 39.1543 113.004C39.1543 119.982 33.4974 125.764 26.5193 125.764C19.5411 125.764 13.8843 119.982 13.8843 113.004C13.8843 106.026 19.5411 100.244 26.5193 100.244Z" fill="#E9E9E9"/>
<path fill-rule="evenodd" clip-rule="evenodd" d="M23.7681 110.528L21.7822 110.528C21.4208 110.528 21.1278 110.821 21.1278 111.182C21.1278 111.544 21.4208 111.837 21.7822 111.837H23.7678C24.1303 111.837 24.4342 112.135 24.4343 112.515C24.434 112.896 24.13 113.194 23.7679 113.194C23.768 113.194 23.7679 113.194 23.7679 113.194H21.7822C21.4208 113.194 21.1278 113.487 21.1278 113.849C21.1278 114.21 21.4208 114.503 21.7822 114.503H23.7681C24.8641 114.503 25.7425 113.608 25.7432 112.516C25.7432 111.424 24.8638 110.529 23.7681 110.528Z" fill="white"/>
<path fill-rule="evenodd" clip-rule="evenodd" d="M24.3516 112.487C24.3516 112.125 24.0582 111.832 23.6963 111.832H23.543C23.1811 111.832 22.8877 112.125 22.8877 112.487C22.8877 112.849 23.1811 113.143 23.543 113.143H23.6963C24.0582 113.143 24.3516 112.849 24.3516 112.487Z" fill="white"/>
<path fill-rule="evenodd" clip-rule="evenodd" d="M28.5956 108.857C29.6497 108.857 30.5153 109.722 30.5153 110.802V114.358C30.5153 115.438 29.6497 116.303 28.5956 116.303H24.3556C23.3014 116.303 22.4358 115.438 22.4358 114.358V110.802C22.4358 109.722 23.3014 108.857 24.3556 108.857H28.5956ZM31.8242 110.802C31.8242 109.011 30.3847 107.548 28.5956 107.548H24.3556C22.5664 107.548 21.1269 109.011 21.1269 110.802V114.358C21.1269 116.149 22.5664 117.612 24.3556 117.612H28.5956C30.3847 117.612 31.8242 116.149 31.8242 114.358V110.802Z" fill="white"/>
<path opacity="0.4" fill-rule="evenodd" clip-rule="evenodd" d="M29.6006 110.452C29.6006 110.09 29.3076 109.797 28.9461 109.797H26.2977C25.9363 109.797 25.6433 110.09 25.6433 110.452C25.6433 110.813 25.9363 111.106 26.2977 111.106H28.9461C29.3076 111.106 29.6006 110.813 29.6006 110.452Z" fill="white"/>
<path d="M39.1543 81.1019C39.1543 74.1238 33.4974 68.3418 26.5193 68.3418C19.5411 68.3418 13.8843 74.1238 13.8843 81.1019C13.8843 88.08 19.5411 93.862 26.5193 93.862C33.4974 93.862 39.1543 88.08 39.1543 81.1019Z" fill="white"/>
<path fill-rule="evenodd" clip-rule="evenodd" d="M30.265 77.4731C30.2869 77.6483 30.2888 77.8753 30.2888 78.213C30.2888 78.553 30.2881 78.7802 30.2672 78.9572C30.2574 79.0403 30.2449 79.093 30.2338 79.126C30.2285 79.1418 30.224 79.1515 30.2211 79.157C30.2184 79.1621 30.2168 79.1641 30.2167 79.1643L30.2167 79.1643C30.2166 79.1644 30.2163 79.1649 30.2149 79.1661C30.2133 79.1674 30.2086 79.1712 30.1991 79.1767C30.1792 79.1881 30.1376 79.2075 30.06 79.2271C29.8966 79.2682 29.6374 79.2954 29.2234 79.2954C28.8095 79.2954 28.5503 79.2682 28.3869 79.2271C28.3093 79.2075 28.2677 79.1881 28.2478 79.1767C28.2382 79.1712 28.2336 79.1674 28.232 79.1661C28.2307 79.1649 28.2303 79.1645 28.2302 79.1644L28.2302 79.1643C28.2301 79.1642 28.2285 79.1622 28.2258 79.157C28.2229 79.1515 28.2184 79.1418 28.2131 79.126C28.202 79.093 28.1895 79.0403 28.1797 78.9572C28.1588 78.7802 28.1581 78.553 28.1581 78.213C28.1581 77.8753 28.16 77.6483 28.1819 77.4731C28.2031 77.3035 28.2348 77.265 28.2352 77.2645L28.2352 77.2645C28.2357 77.2638 28.2365 77.2629 28.2385 77.2612C28.2406 77.2594 28.2457 77.2554 28.2557 77.2497C28.2763 77.2378 28.3184 77.2184 28.3956 77.1988C28.558 77.1577 28.8148 77.1307 29.2234 77.1307C29.6321 77.1307 29.8889 77.1577 30.0513 77.1988C30.1285 77.2184 30.1705 77.2378 30.1912 77.2497C30.2011 77.2554 30.2063 77.2594 30.2084 77.2612C30.2104 77.2629 30.2112 77.2638 30.2117 77.2645L30.2117 77.2645C30.2121 77.265 30.2438 77.3035 30.265 77.4731ZM30.3724 75.93C30.0524 75.849 29.6677 75.8218 29.2234 75.8218C28.7791 75.8218 28.3944 75.849 28.0744 75.93C27.7436 76.0137 27.4369 76.1666 27.2124 76.4477C26.9958 76.719 26.9177 77.0337 26.8831 77.311C26.8492 77.5822 26.8492 77.8962 26.8492 78.2083V78.213C26.8492 78.2252 26.8492 78.2374 26.8492 78.2496C26.8492 78.549 26.8491 78.8506 26.8799 79.1107C26.9124 79.3862 26.9873 79.7024 27.203 79.9755C27.427 80.2592 27.7351 80.4125 28.0669 80.4962C28.3877 80.5771 28.7748 80.6042 29.2234 80.6042C29.6721 80.6042 30.0591 80.5771 30.38 80.4962C30.7118 80.4125 31.0198 80.2592 31.2439 79.9755C31.4595 79.7024 31.5345 79.3862 31.567 79.1107C31.5978 78.8506 31.5977 78.549 31.5977 78.2496C31.5976 78.2374 31.5976 78.2252 31.5976 78.213V78.2083C31.5976 77.8962 31.5976 77.5822 31.5638 77.311C31.5292 77.0337 31.4511 76.719 31.2344 76.4477C31.01 76.1666 30.7033 76.0137 30.3724 75.93Z" fill="#345099"/>
<path opacity="0.4" fill-rule="evenodd" clip-rule="evenodd" d="M24.8587 77.4731C24.8806 77.6483 24.8825 77.8753 24.8825 78.213C24.8825 78.553 24.8818 78.7802 24.8609 78.9572C24.8511 79.0403 24.8387 79.093 24.8275 79.126C24.8222 79.1418 24.8177 79.1515 24.8149 79.157C24.8121 79.1622 24.8106 79.1642 24.8104 79.1643C24.8104 79.1644 24.8101 79.1649 24.8086 79.1661C24.807 79.1674 24.8024 79.1712 24.7929 79.1767C24.773 79.1881 24.7313 79.2075 24.6537 79.2271C24.4904 79.2682 24.2312 79.2954 23.8172 79.2954C23.4032 79.2954 23.144 79.2682 22.9807 79.2271C22.903 79.2075 22.8614 79.1881 22.8415 79.1767C22.832 79.1712 22.8274 79.1674 22.8258 79.1661C22.8244 79.1649 22.8241 79.1645 22.824 79.1644L22.824 79.1643C22.8238 79.1642 22.8222 79.1622 22.8195 79.157C22.8167 79.1515 22.8122 79.1418 22.8069 79.126C22.7957 79.093 22.7833 79.0403 22.7735 78.9572C22.7525 78.7802 22.7519 78.553 22.7519 78.213C22.7519 77.8753 22.7538 77.6483 22.7756 77.4731C22.7968 77.3035 22.8286 77.265 22.829 77.2645L22.829 77.2645C22.8295 77.2638 22.8303 77.2629 22.8322 77.2612C22.8344 77.2594 22.8395 77.2554 22.8494 77.2497C22.8701 77.2378 22.9121 77.2184 22.9894 77.1988C23.1518 77.1577 23.4085 77.1307 23.8172 77.1307C24.2259 77.1307 24.4826 77.1577 24.645 77.1988C24.7222 77.2184 24.7643 77.2378 24.7849 77.2497C24.7949 77.2554 24.8 77.2594 24.8021 77.2612C24.8041 77.2629 24.8049 77.2638 24.8054 77.2645L24.8054 77.2645C24.8058 77.265 24.8376 77.3035 24.8587 77.4731ZM24.9662 75.93C24.6462 75.849 24.2615 75.8218 23.8172 75.8218C23.3729 75.8218 22.9882 75.849 22.6682 75.93C22.3373 76.0137 22.0307 76.1666 21.8062 76.4477C21.5896 76.719 21.5115 77.0337 21.4768 77.311C21.443 77.5822 21.443 77.8962 21.443 78.2083V78.213C21.443 78.2252 21.443 78.2374 21.443 78.2496C21.4429 78.549 21.4429 78.8506 21.4736 79.1107C21.5062 79.3862 21.5811 79.7024 21.7968 79.9755C22.0208 80.2592 22.3288 80.4125 22.6606 80.4962C22.9815 80.5771 23.3686 80.6042 23.8172 80.6042C24.2658 80.6042 24.6529 80.5771 24.9738 80.4962C25.3056 80.4125 25.6136 80.2592 25.8376 79.9755C26.0533 79.7024 26.1282 79.3862 26.1608 79.1107C26.1915 78.8506 26.1915 78.549 26.1914 78.2496C26.1914 78.2374 26.1914 78.2252 26.1914 78.213V78.2083C26.1914 77.8962 26.1914 77.5822 26.1575 77.311C26.1229 77.0337 26.0448 76.719 25.8282 76.4477C25.6037 76.1666 25.2971 76.0137 24.9662 75.93Z" fill="#345099"/>
<path fill-rule="evenodd" clip-rule="evenodd" d="M30.265 82.9311C30.2869 83.1063 30.2888 83.3333 30.2888 83.671C30.2888 84.011 30.2881 84.2382 30.2672 84.4152C30.2574 84.4983 30.2449 84.551 30.2338 84.584C30.2285 84.5998 30.224 84.6095 30.2211 84.615C30.2184 84.6201 30.2168 84.6221 30.2167 84.6223L30.2167 84.6223C30.2166 84.6224 30.2163 84.6229 30.2149 84.6241C30.2133 84.6254 30.2086 84.6292 30.1991 84.6347C30.1792 84.6461 30.1376 84.6655 30.06 84.6851C29.8966 84.7262 29.6374 84.7534 29.2234 84.7534C28.8095 84.7534 28.5503 84.7262 28.3869 84.6851C28.3093 84.6655 28.2677 84.6461 28.2478 84.6347C28.2382 84.6292 28.2336 84.6254 28.232 84.6241C28.2307 84.6229 28.2303 84.6225 28.2302 84.6224L28.2302 84.6223C28.2301 84.6222 28.2285 84.6202 28.2258 84.615C28.2229 84.6095 28.2184 84.5998 28.2131 84.584C28.202 84.551 28.1895 84.4983 28.1797 84.4152C28.1588 84.2382 28.1581 84.011 28.1581 83.671C28.1581 83.3333 28.16 83.1063 28.1819 82.9311C28.2031 82.7615 28.2348 82.723 28.2352 82.7225L28.2352 82.7225C28.2357 82.7219 28.2365 82.7209 28.2385 82.7192C28.2406 82.7174 28.2457 82.7134 28.2557 82.7077C28.2763 82.6958 28.3184 82.6764 28.3956 82.6568C28.558 82.6157 28.8148 82.5887 29.2234 82.5887C29.6321 82.5887 29.8889 82.6157 30.0513 82.6568C30.1285 82.6764 30.1705 82.6958 30.1912 82.7077C30.2011 82.7134 30.2063 82.7174 30.2084 82.7192C30.2104 82.7209 30.2112 82.7219 30.2117 82.7225L30.2117 82.7225C30.2121 82.723 30.2438 82.7615 30.265 82.9311ZM30.3724 81.388C30.0524 81.307 29.6677 81.2798 29.2234 81.2798C28.7791 81.2798 28.3944 81.307 28.0744 81.388C27.7436 81.4717 27.4369 81.6246 27.2124 81.9057C26.9958 82.177 26.9177 82.4917 26.8831 82.769C26.8492 83.0402 26.8492 83.3542 26.8492 83.6663V83.671C26.8492 83.6832 26.8492 83.6954 26.8492 83.7076C26.8492 84.007 26.8491 84.3086 26.8799 84.5687C26.9124 84.8442 26.9873 85.1604 27.203 85.4335C27.427 85.7172 27.7351 85.8705 28.0669 85.9542C28.3877 86.0351 28.7748 86.0623 29.2234 86.0623C29.6721 86.0623 30.0591 86.0351 30.38 85.9542C30.7118 85.8705 31.0198 85.7172 31.2439 85.4335C31.4595 85.1604 31.5345 84.8442 31.567 84.5687C31.5978 84.3086 31.5977 84.0071 31.5977 83.7077C31.5976 83.6954 31.5976 83.6832 31.5976 83.671V83.6663C31.5976 83.3542 31.5976 83.0402 31.5638 82.769C31.5292 82.4917 31.4511 82.177 31.2344 81.9057C31.01 81.6246 30.7033 81.4717 30.3724 81.388Z" fill="#345099"/>
<path fill-rule="evenodd" clip-rule="evenodd" d="M24.8587 82.9311C24.8806 83.1063 24.8825 83.3333 24.8825 83.671C24.8825 84.011 24.8818 84.2382 24.8609 84.4152C24.8511 84.4983 24.8387 84.551 24.8275 84.584C24.8222 84.5998 24.8177 84.6095 24.8149 84.615C24.8121 84.6202 24.8106 84.6222 24.8104 84.6223C24.8104 84.6224 24.8101 84.6229 24.8086 84.6241C24.807 84.6254 24.8024 84.6292 24.7929 84.6347C24.773 84.6461 24.7313 84.6655 24.6537 84.6851C24.4904 84.7262 24.2312 84.7534 23.8172 84.7534C23.4032 84.7534 23.144 84.7262 22.9807 84.6851C22.903 84.6655 22.8614 84.6461 22.8415 84.6347C22.832 84.6292 22.8274 84.6254 22.8258 84.6241C22.8244 84.6229 22.8241 84.6225 22.824 84.6224L22.824 84.6223C22.8238 84.6222 22.8222 84.6202 22.8195 84.615C22.8167 84.6095 22.8122 84.5998 22.8069 84.584C22.7957 84.551 22.7833 84.4983 22.7735 84.4152C22.7525 84.2382 22.7519 84.011 22.7519 83.671C22.7519 83.3333 22.7538 83.1063 22.7756 82.9311C22.7968 82.7615 22.8286 82.723 22.829 82.7225L22.829 82.7225C22.8295 82.7219 22.8303 82.7209 22.8322 82.7192C22.8344 82.7174 22.8395 82.7134 22.8494 82.7077C22.8701 82.6958 22.9121 82.6764 22.9894 82.6568C23.1518 82.6157 23.4085 82.5887 23.8172 82.5887C24.2259 82.5887 24.4826 82.6157 24.645 82.6568C24.7222 82.6764 24.7643 82.6958 24.7849 82.7077C24.7949 82.7134 24.8 82.7174 24.8021 82.7192C24.8041 82.7209 24.8049 82.7219 24.8054 82.7225L24.8054 82.7225C24.8058 82.723 24.8376 82.7615 24.8587 82.9311ZM24.9662 81.388C24.6462 81.307 24.2615 81.2798 23.8172 81.2798C23.3729 81.2798 22.9882 81.307 22.6682 81.388C22.3373 81.4717 22.0307 81.6246 21.8062 81.9057C21.5896 82.177 21.5115 82.4917 21.4768 82.769C21.443 83.0402 21.443 83.3542 21.443 83.6663V83.671C21.443 83.6832 21.443 83.6954 21.443 83.7077C21.4429 84.0071 21.4429 84.3086 21.4736 84.5687C21.5062 84.8442 21.5811 85.1604 21.7968 85.4335C22.0208 85.7172 22.3288 85.8705 22.6606 85.9542C22.9815 86.0351 23.3686 86.0623 23.8172 86.0623C24.2658 86.0623 24.6529 86.0351 24.9738 85.9542C25.3056 85.8705 25.6136 85.7172 25.8376 85.4335C26.0533 85.1604 26.1282 84.8442 26.1608 84.5687C26.1915 84.3086 26.1915 84.0071 26.1914 83.7077C26.1914 83.6954 26.1914 83.6832 26.1914 83.671V83.6663C26.1914 83.3542 26.1914 83.0402 26.1575 82.769C26.1229 82.4917 26.0448 82.177 25.8282 81.9057C25.6037 81.6246 25.2971 81.4717 24.9662 81.388Z" fill="#345099"/>
<path d="M0.137695 24.3393V3.66448C0.14062 3.21777 0.231504 2.77602 0.405158 2.36443C0.578812 1.95285 0.831834 1.57951 1.14978 1.26571C1.46772 0.951917 1.84436 0.703822 2.25819 0.53559C2.67202 0.367358 3.11493 0.282286 3.56163 0.28523H24.5061C24.9528 0.282286 25.3957 0.367358 25.8095 0.53559C26.2233 0.703822 26.6 0.951917 26.9179 1.26571C27.2359 1.57951 27.4889 1.95285 27.6625 2.36443C27.8362 2.77602 27.9271 3.21777 27.93 3.66448V24.3393C27.9271 24.786 27.8362 25.2277 27.6625 25.6393C27.4889 26.0509 27.2358 26.4242 26.9179 26.7379C26.5999 27.0517 26.2233 27.2998 25.8095 27.468C25.3956 27.6362 24.9527 27.7212 24.5061 27.7182H3.56163C3.11495 27.7212 2.67204 27.6362 2.25822 27.468C1.84439 27.2998 1.46775 27.0517 1.1498 26.7379C0.831851 26.4242 0.578823 26.0509 0.405165 25.6393C0.231507 25.2277 0.14062 24.786 0.137695 24.3393Z" fill="#002C86"/>
<path d="M4.20996 21.7635C4.21462 21.2599 4.41911 20.7787 4.77848 20.4258C5.13784 20.073 5.62262 19.8773 6.12625 19.8818C6.62994 19.8772 7.11484 20.0728 7.47428 20.4257C7.83373 20.7786 8.03831 21.2598 8.04298 21.7635C8.03831 22.2672 7.83373 22.7484 7.47428 23.1013C7.11484 23.4542 6.62994 23.6498 6.12625 23.6452C5.62262 23.6498 5.13784 23.4541 4.77848 23.1012C4.41911 22.7483 4.21462 22.2671 4.20996 21.7635ZM20.0225 6.2397C20.0271 5.73607 20.2316 5.25492 20.591 4.90204C20.9503 4.54917 21.4351 4.35348 21.9387 4.35799C22.4424 4.35338 22.9273 4.54903 23.2868 4.90191C23.6462 5.2548 23.8508 5.736 23.8555 6.2397C23.8508 6.74339 23.6462 7.22464 23.2868 7.57752C22.9273 7.93041 22.4424 8.12606 21.9387 8.12145C21.435 8.12596 20.9502 7.93021 20.5908 7.57726C20.2314 7.22431 20.027 6.74339 20.0225 6.2397Z" fill="white"/>
<path d="M22.66 19.944C22.5402 19.8915 22.4388 19.8046 22.3686 19.6942C22.2985 19.5839 22.2628 19.4551 22.2661 19.3244V16.3928C22.2631 16.2624 22.299 16.134 22.3691 16.024C22.4393 15.914 22.5405 15.8274 22.66 15.775C23.7359 15.3256 24.3201 13.9636 23.3953 12.6755C23.353 12.6168 23.3011 12.5658 23.2417 12.5245C21.9298 11.6166 20.5426 12.19 20.0849 13.2453C20.0291 13.3641 19.9399 13.4641 19.8281 13.5328C19.7162 13.6015 19.5868 13.636 19.4556 13.632H16.4526C16.3207 13.6315 16.1918 13.5928 16.0814 13.5205C15.9711 13.4482 15.8841 13.3455 15.8309 13.2247C15.6729 12.8806 15.4195 12.589 15.1008 12.3846C14.782 12.1802 14.4113 12.0715 14.0326 12.0715C13.6539 12.0715 13.2832 12.1802 12.9644 12.3846C12.6457 12.589 12.3923 12.8806 12.2343 13.2247C12.1811 13.3455 12.0941 13.4482 11.9838 13.5205C11.8734 13.5928 11.7445 13.6315 11.6126 13.632H8.62115H8.57394C8.44442 13.6273 8.31886 13.5861 8.21178 13.5131C8.1047 13.44 8.02047 13.3382 7.9688 13.2193C7.76865 12.7804 7.41298 12.4311 6.97045 12.239C6.85128 12.1908 6.74837 12.1094 6.67386 12.0047C6.59934 11.8999 6.55632 11.776 6.54985 11.6476C6.54985 11.6321 6.54985 11.6166 6.54985 11.6011V8.68893C6.54985 8.67343 6.54985 8.65793 6.54985 8.6428C6.55584 8.51394 6.59865 8.38951 6.6732 8.28424C6.74774 8.17897 6.8509 8.09727 6.97045 8.04883C7.41302 7.85677 7.76871 7.5075 7.9688 7.0685C8.02043 6.94961 8.10466 6.84776 8.21175 6.77473C8.31883 6.7017 8.4444 6.66048 8.57394 6.65583H8.62115H11.6126C11.7424 6.65483 11.8697 6.69156 11.9789 6.76156C12.0882 6.83156 12.1748 6.93182 12.2282 7.05012C12.6895 8.10217 14.076 8.67199 15.3829 7.76446C15.4416 7.72365 15.4931 7.6732 15.535 7.61525C16.6649 6.04781 15.5494 4.35891 14.0321 4.35891C13.653 4.35725 13.2816 4.46525 12.9626 4.66988C12.6436 4.87452 12.3905 5.16705 12.2339 5.51223C12.1808 5.63302 12.0938 5.73582 11.9835 5.80817C11.8731 5.88052 11.7442 5.91931 11.6122 5.91986H8.60962C8.4784 5.9238 8.34889 5.88925 8.23707 5.82047C8.12524 5.75168 8.036 5.65168 7.98034 5.53278C7.52261 4.4764 6.13537 3.90298 4.82346 4.81195C4.76409 4.85321 4.71217 4.90428 4.66993 4.96296C3.74546 6.25072 4.32934 7.61273 5.40553 8.06253C5.52503 8.11486 5.62627 8.20153 5.69641 8.31152C5.76655 8.42151 5.80242 8.54986 5.79947 8.68028V11.6115C5.80242 11.7419 5.76655 11.8703 5.69641 11.9803C5.62627 12.0903 5.52503 12.1769 5.40553 12.2293C4.3297 12.6787 3.74546 14.0407 4.67029 15.3288C4.71248 15.3876 4.76441 15.4386 4.82382 15.4799C6.13573 16.3877 7.52297 15.814 7.9807 14.759C8.03637 14.6402 8.12563 14.5402 8.23746 14.4715C8.34929 14.4028 8.47879 14.3683 8.60998 14.3723H11.613C11.7449 14.3728 11.8738 14.4116 11.9841 14.4839C12.0945 14.5561 12.1815 14.6589 12.2347 14.7796C12.3926 15.1237 12.646 15.4153 12.9648 15.6198C13.2836 15.8242 13.6543 15.9328 14.033 15.9328C14.4116 15.9328 14.7824 15.8242 15.1011 15.6198C15.4199 15.4153 15.6733 15.1237 15.8313 14.7796C15.8844 14.6589 15.9714 14.5561 16.0818 14.4839C16.1921 14.4116 16.3211 14.3728 16.453 14.3723H19.4444H19.4916C19.6209 14.3767 19.7464 14.4176 19.8534 14.4903C19.9605 14.563 20.0447 14.6646 20.0964 14.7832C20.2966 15.2222 20.6524 15.5715 21.0951 15.7635C21.2147 15.8119 21.3178 15.8936 21.3924 15.9989C21.4669 16.1042 21.5097 16.2286 21.5157 16.3575C21.5157 16.373 21.5157 16.3881 21.5157 16.4036V19.3147C21.5157 19.3302 21.5157 19.3457 21.5157 19.3608C21.5097 19.4897 21.4669 19.6141 21.3924 19.7194C21.3178 19.8246 21.2147 19.9063 21.0951 19.9548C20.6524 20.1468 20.2966 20.4961 20.0964 20.9351C20.0448 21.054 19.9605 21.1558 19.8535 21.2289C19.7464 21.3019 19.6208 21.3431 19.4913 21.3478H16.4522C16.3225 21.3488 16.1952 21.312 16.0859 21.242C15.9766 21.172 15.89 21.0718 15.8367 20.9535C15.3753 19.9014 13.9892 19.3316 12.6819 20.2388C12.6231 20.2795 12.5715 20.33 12.5295 20.388C11.3996 21.9554 12.5151 23.6443 14.0324 23.6443C14.4115 23.646 14.783 23.538 15.1021 23.3334C15.4212 23.1288 15.6743 22.8362 15.8309 22.491C15.8841 22.3703 15.9711 22.2676 16.0814 22.1953C16.1918 22.123 16.3207 22.0843 16.4526 22.0837H19.4556C19.5868 22.0798 19.7163 22.1144 19.8281 22.1831C19.94 22.2519 20.0292 22.3519 20.0849 22.4708C20.5426 23.5268 21.9298 24.1006 23.2417 23.1917C23.3011 23.1505 23.353 23.0995 23.3953 23.041C24.3197 21.7532 23.7359 20.3912 22.66 19.9414" fill="#33A437"/>
<path d="M33.2021 19.6452C33.2021 18.5308 33.5157 18.2461 34.6009 18.5308C35.7984 18.8399 37.0296 18.9992 38.2663 19.0051C40.1956 19.0051 40.8948 18.6732 40.8948 17.7249C40.8948 17.0372 40.5092 16.6577 38.9655 15.7805L35.8786 14.0025C34.2628 13.0777 33.4429 11.75 33.4429 10.0189C33.4429 7.36334 35.1311 6.03558 39.0618 6.03558C40.0792 6.02251 41.0935 6.15023 42.0759 6.41509C43.2336 6.72325 43.4988 7.00762 43.4988 8.0748V8.31196C43.4988 9.45015 43.2105 9.68694 42.0759 9.37878C41.0957 9.10294 40.0798 8.97515 39.0618 8.99963C37.4219 8.99963 36.771 9.26021 36.771 10.114C36.771 10.6831 37.0593 10.9913 38.0973 11.5842L41.305 13.4335C43.3309 14.5954 44.2244 15.7098 44.2244 17.7249C44.2244 20.5001 42.4641 21.9688 38.2195 21.9688C36.9912 21.986 35.7664 21.8346 34.5793 21.5186C33.4458 21.2101 33.2047 20.9495 33.2047 19.8827L33.2021 19.6452Z" fill="#33A437"/>
<path d="M73.5509 26.539L73.5264 26.4172C73.2575 25.372 73.4543 25.1031 74.4541 24.884C75.8958 24.5676 76.7968 23.7155 77.1158 22.3528C76.7891 22.4361 76.4515 22.4689 76.1149 22.4501C74.0879 22.4501 73.4774 21.3793 72.9158 19.0427L71.1332 11.3274C70.9133 10.2562 71.1087 9.98878 72.2076 9.98878H72.7449C73.8438 9.98878 74.1369 10.2566 74.4054 11.3274L76.0172 18.6777C76.2125 19.5538 76.4569 19.6998 77.1651 19.6998C77.629 19.6998 77.8729 19.481 78.0686 18.6777L79.6805 11.3274C79.9493 10.2562 80.242 9.98878 81.3412 9.98878H81.8782C82.9771 9.98878 83.1725 10.2566 82.9526 11.3274L80.4618 22.1578C79.6559 25.7602 77.8002 27.2689 75.1872 27.6585C74.9775 27.6933 74.7656 27.7132 74.5532 27.718C73.9246 27.7176 73.7228 27.4332 73.5509 26.539ZM59.0741 16.761V14.8591C59.0741 11.291 60.9756 9.50944 64.7549 9.50944C68.3149 9.50944 70.0949 11.2213 70.0949 14.645C70.0949 14.9777 70.0703 15.2869 70.0458 15.5723C69.924 16.6421 69.6068 16.8799 68.46 16.8799H62.267V17.2364C62.267 18.4726 63.2178 19.0435 65.461 19.0435C66.4529 19.0291 67.4411 18.9175 68.4113 18.7104C69.4598 18.4964 69.7038 18.7342 69.7038 19.8519V20.1132C69.7038 21.1584 69.4843 21.3974 68.4113 21.6587C67.4371 21.8882 66.4375 21.992 65.4369 21.9675C61.0737 21.9675 59.0755 20.3986 59.0755 16.761H59.0741ZM62.2681 14.0031V14.3599H67.0713V14.0031C67.0713 12.7907 66.2665 12.1963 64.6566 12.1963C63.0729 12.196 62.2681 12.7907 62.2681 14.0031ZM56.6456 21.9683C55.5456 21.9683 55.1243 21.7495 54.4471 20.851L51.0534 16.375C50.4012 15.6119 50.0223 14.653 49.9769 13.6502C50.0244 12.6698 50.4041 11.7347 51.0534 10.9987L53.9789 7.25214C54.6579 6.37633 55.0788 6.15757 56.1774 6.15757H57.1837C58.2837 6.15757 58.3771 6.37633 57.6988 7.25214L54.0711 11.9714C53.6785 12.4298 53.3335 12.927 53.0415 13.4553C53.0144 13.5504 52.9987 13.6484 52.9946 13.7472C52.9941 13.9119 53.0429 14.073 53.1348 14.2096L54.0719 15.4501L58.1672 20.8506C58.8459 21.7516 58.7522 21.9679 57.6526 21.9679L56.6456 21.9683ZM47.4951 21.9683C46.3951 21.9683 46.1377 21.6522 46.1377 20.5572V7.5668C46.1377 6.47222 46.3951 6.15576 47.4951 6.15576H47.9164C49.0163 6.15576 49.2741 6.47222 49.2741 7.5668V20.5572C49.2741 21.6522 49.0163 21.9683 47.9164 21.9683H47.4951Z" fill="#002C86"/>
<path d="M79.6397 8.43071C79.2829 8.43071 79.1993 8.33488 79.1993 8.00294V4.52347C79.1993 3.90428 79.4725 3.63867 80.11 3.63867H81.3549C82.4722 3.63867 83.0327 4.17677 83.0327 5.24576C83.0327 6.31475 82.4708 6.84527 81.3549 6.84527H80.2168V8.00254C80.2168 8.33448 80.1331 8.43036 79.7763 8.43036L79.6397 8.43071ZM80.2163 4.78191V5.92439H81.3546C81.8329 5.92439 82.0152 5.71068 82.0152 5.24611C82.0152 4.78153 81.8329 4.56131 81.3546 4.56131H80.4438C80.4135 4.55661 80.3825 4.55903 80.3532 4.56835C80.324 4.57767 80.2973 4.59365 80.2753 4.61503C80.2533 4.63641 80.2365 4.66263 80.2264 4.69158C80.2162 4.72054 80.2129 4.75146 80.2168 4.78191H80.2163ZM77.6528 8.43071C77.5179 8.44577 77.3816 8.41935 77.2622 8.35495C77.1427 8.29055 77.0458 8.19124 76.9842 8.07029L76.0784 6.70075H75.4026V8.00544C75.4026 8.33739 75.3208 8.43326 74.9702 8.43326H74.8364C74.4872 8.43326 74.4039 8.33739 74.4039 8.00544V4.52598C74.4039 3.90679 74.6711 3.64118 75.2949 3.64118H76.5128C77.6044 3.64118 78.1541 4.14973 78.1541 5.17475C78.1541 5.9709 77.82 6.45744 77.1514 6.62683L78.1245 8.07896C78.3101 8.3518 78.2806 8.43291 77.9314 8.43291L77.6528 8.43071ZM75.4026 4.78191V5.77701H76.5167C76.9492 5.77701 77.1626 5.57806 77.1626 5.17259C77.1626 4.75992 76.9845 4.55986 76.5167 4.55986H75.6254C75.5952 4.55545 75.5644 4.55819 75.5354 4.56778C75.5065 4.57737 75.4801 4.59356 75.4585 4.61512C75.4369 4.63668 75.4207 4.66298 75.4111 4.69193C75.4015 4.72088 75.3983 4.75171 75.4026 4.78191ZM70.6052 8.43071C69.9128 8.43071 69.6162 8.16545 69.6162 7.54626V4.52383C69.6162 3.90463 69.9128 3.63902 70.6052 3.63902H72.9713C73.3426 3.63902 73.4496 3.7349 73.4496 4.06684V4.13314C73.4496 4.4795 73.3415 4.56061 72.9713 4.56061H70.9681C70.8033 4.56061 70.7207 4.63438 70.7205 4.78191V5.51893H72.6415C73.0124 5.51893 73.1198 5.60002 73.1198 5.94674V6.01309C73.1198 6.34503 73.0117 6.44051 72.6415 6.44051H70.7205V7.28822C70.7205 7.43575 70.803 7.50952 70.9681 7.50952H72.9713C73.3426 7.50952 73.4496 7.59058 73.4496 7.93694V8.00329C73.4496 8.33523 73.3415 8.43111 72.9713 8.43111L70.6052 8.43071Z" fill="#33A437"/>
<path d="M83.9092 334.487C83.9092 324.849 91.7226 317.036 101.361 317.036H573.43C583.068 317.036 590.881 324.849 590.881 334.487V417.294C590.881 426.932 583.068 434.745 573.43 434.745H101.361C91.7226 434.745 83.9092 426.932 83.9092 417.294V334.487Z" fill="#F4F4F4"/>
<path opacity="0.3" fill-rule="evenodd" clip-rule="evenodd" d="M545.45 339.723H130.157V338.851H545.45V339.723Z" fill="#94ADC2"/>
<path opacity="0.3" fill-rule="evenodd" clip-rule="evenodd" d="M545.45 387.332H130.157V386.459H545.45V387.332Z" fill="#94ADC2"/>
<path opacity="0.3" fill-rule="evenodd" clip-rule="evenodd" d="M545.45 363.528H130.157V362.656H545.45V363.528Z" fill="#94ADC2"/>
<path opacity="0.3" fill-rule="evenodd" clip-rule="evenodd" d="M545.45 411.135H130.157V410.263H545.45V411.135Z" fill="#94ADC2"/>
<path d="M161.287 370.817C155.754 369.346 148.884 377.597 142.893 387.67C136.575 398.294 144.993 410.847 157.353 410.856L542.731 411.133C543.457 411.134 543.882 410.332 543.332 409.858C543.166 409.715 543.029 409.527 542.931 409.331C542.436 408.34 540.858 407.208 536.687 404.621C535.692 404.004 534.635 403.483 533.52 403.124C524.069 400.08 515.734 400.715 512.61 401.464C511.469 401.762 508.094 402.625 503.715 403.696C497.695 404.41 493.681 402.208 492.427 401.018C491.4 400.225 488.322 397.358 484.216 392.24C481.417 387.878 477.094 388.178 474.466 389.16C473.643 389.467 472.859 389.868 472.036 390.176C471.134 390.514 469.893 390.974 468.443 391.506C467.106 391.996 465.705 392.386 464.286 392.257C459.756 391.846 456.815 388.653 455.823 386.884C453.656 383.787 448.909 377.276 445.796 373.863C445.199 373.207 444.531 372.608 443.742 372.203C440.429 370.503 436.499 371.135 434.096 371.969C433.285 372.251 432.547 372.694 431.836 373.173C428.236 375.597 422.128 379.685 419.904 381.082C417.441 382.629 414.545 382.619 413.405 382.421C412.378 382.223 409.642 381.558 406.905 380.487C404.168 379.773 401.203 380.189 400.063 380.487C399.549 380.683 398.594 381.045 397.516 381.452C395.813 382.094 393.833 382.679 392.085 382.175C391.391 381.975 390.799 381.754 390.204 381.346C388.201 379.974 385.343 376.221 383.985 374.238C383.574 373.667 382.512 372.405 380.927 370.943C379.601 369.72 377.998 368.686 376.195 368.661C370.361 368.581 366.708 375.774 365.512 379.892C364.144 384.157 361.339 393.103 361.065 394.769C360.806 396.349 359.76 397.928 358.673 399.508C357.985 400.506 357.097 401.702 355.904 401.918C353.793 402.299 352.056 400.651 350.211 399.557C347.347 397.859 343.953 396.702 342.251 396.257C338.26 395.563 329.388 393.877 325.83 392.687C322.273 391.496 318.419 391.893 316.936 392.24C315.91 392.587 312.968 393.282 309.41 393.282C305.468 393.282 302.284 391.312 300.528 389.737C299.788 389.075 299.113 388.344 298.368 387.688C296.237 385.816 293.107 383.019 291.964 381.826C290.427 380.222 288.614 378.858 285.285 377.195C284.499 376.802 283.675 376.477 282.817 376.286C277.991 375.211 274.567 376.55 271.896 377.829C270.905 378.303 269.884 378.732 268.797 378.888C265.903 379.305 263.8 378.557 261.982 377.412L261.965 377.401C261.184 376.91 260.398 376.415 259.693 375.821C256.917 373.484 253.045 367.869 251.256 365.014C250.428 364.025 248.005 361.304 244.497 357.786C243.762 357.049 242.972 356.347 242.031 355.905C236.657 353.383 230.991 357.029 228.678 359.361C223.204 364.965 211.779 376.53 209.863 377.958C207.469 379.743 206.1 379.892 201.995 379.892C198.258 379.993 192.261 377.429 188.599 375.565C187.487 374.999 186.346 374.473 185.116 374.261C184.449 374.145 183.716 374.06 183.021 374.058C181.979 374.053 181.011 374.502 180.03 374.855C176.895 375.985 174.496 375.457 173.602 374.982C170.637 373.743 164.024 371.174 161.287 370.817Z" fill="url(#paint0_linear_1900_742)"/>
<path d="M543.792 411.135C543.087 411.135 542.448 410.944 542.228 410.646C536.544 402.775 525.441 401.598 519.339 401.598C515.176 401.598 511.717 402.46 508.655 403.215C505.725 403.945 502.971 404.625 500.041 404.442C491.868 403.928 488.234 399.317 484.995 395.245C482.616 392.235 480.171 389.125 476.778 389.175C475.633 389.191 474.223 389.946 472.879 390.668C470.874 391.737 468.605 392.957 465.213 392.957C457.943 392.957 454.462 387.682 450.783 382.101C447.677 377.382 444.131 372.025 438.998 371.884C435.01 371.751 431.199 374.728 427.719 377.332C423.291 380.633 418.708 384.042 412.408 383.113C410.558 382.839 409.214 382.317 408.024 381.86C406.482 381.263 405.204 380.791 403.222 380.832C401.107 380.882 399.763 381.438 398.353 382.026C396.965 382.607 395.379 383.27 393.11 383.138C388.969 382.897 386.788 379.961 384.012 376.246C381.897 373.393 378.989 369.487 376.015 369.487C370.288 369.487 367.071 380.476 364.957 387.74C362.049 397.675 360.374 402.85 354.713 402.585C352.752 402.485 351.695 401.739 350.483 400.86C349.117 399.881 347.245 398.538 343.346 397.368C341.892 396.937 341.209 396.829 339.975 396.647C338.763 396.464 337.133 396.224 334.159 395.569C330.568 394.781 328.321 394.126 326.669 393.653C324.576 393.048 323.541 392.741 321.602 392.633C319.069 392.492 317.703 392.84 316.095 393.247C314.817 393.57 313.363 393.943 311.337 394.026C302.899 394.366 298.009 389.532 293.295 384.854C289.219 380.832 285.012 376.661 279.438 376.661C276.839 376.661 275.429 377.291 273.821 378.021C272.102 378.792 270.186 379.671 266.771 379.671C259.7 379.671 255.602 373.924 250.844 367.273C247.165 362.115 242.583 355.696 237.758 355.696C233.639 355.696 229.916 359.768 225.179 364.926C221.875 368.525 217.777 373.012 212.204 377.548C210.023 379.331 207.512 380.301 204.516 380.509C200.969 380.766 196.916 379.92 191.805 377.847C190.99 377.515 190.175 377.109 189.359 376.686C187.377 375.674 185.46 374.712 183.257 374.795C182.2 374.828 181.561 375.068 180.724 375.367C179.755 375.715 178.543 376.147 176.67 376.188C173.322 376.221 170.59 374.952 167.947 373.692C165.501 372.531 162.968 371.328 160.391 371.328C153.958 371.328 145.895 383.055 133.427 410.546C133.228 410.944 132.369 411.193 131.488 411.118C130.607 411.044 130.012 410.679 130.188 410.297C145.653 376.188 152.504 369.943 160.369 369.943C164.4 369.943 167.572 371.444 170.348 372.771C172.485 373.791 174.798 374.836 176.494 374.803C177.243 374.787 177.728 374.629 178.587 374.314C179.6 373.949 180.878 373.484 182.971 373.418C186.914 373.294 189.536 374.621 191.849 375.807C192.576 376.18 193.303 376.553 194.03 376.851C198.281 378.568 201.52 379.323 203.943 379.149C205.86 379.008 207.6 378.278 209.274 376.918C214.759 372.448 218.835 368.003 222.095 364.429C227.713 358.333 231.414 354.303 237.758 354.303C244.984 354.303 249.147 360.124 253.972 366.867C257.607 371.95 262.123 378.278 266.771 378.278C268.666 378.278 269.789 377.822 271.441 377.067C273.226 376.263 275.429 375.267 279.438 375.267C287.148 375.267 291.576 379.655 296.291 384.299C300.564 388.511 304.948 392.865 311.028 392.633C312.306 392.583 313.297 392.335 314.421 392.044C316.183 391.596 318.364 391.041 322.021 391.248C324.731 391.397 326.317 391.862 328.498 392.5C330.15 392.981 332.221 393.587 335.635 394.333C338.411 394.939 339.887 395.162 341.055 395.337C342.354 395.536 343.412 395.685 345.218 396.232C349.69 397.567 351.871 399.127 353.303 400.155C353.461 400.267 353.641 400.396 353.826 400.523C354.616 401.069 355.639 401.187 356.336 400.528C358.534 398.446 360.417 392.047 361.718 387.574C365.155 375.807 368.019 368.094 376.037 368.094C381.413 368.094 384.188 371.851 387.162 375.831C388.881 378.145 391.48 381.637 393.573 381.761C394.234 381.794 394.961 381.512 396.084 381.031C397.626 380.393 399.719 379.514 403.068 379.439C406.46 379.364 408.465 380.136 410.249 380.824C411.307 381.23 412.298 381.612 413.51 381.794C417.277 382.35 421.154 379.439 424.921 376.636C429.084 373.534 433.468 370.333 439.24 370.491C446.686 370.69 450.211 376.047 453.956 381.719C456.996 386.33 460.432 391.555 465.235 391.555C467.041 391.555 468.715 390.659 470.346 389.789C472.152 388.818 474.025 387.815 476.668 387.773C482.374 387.682 485.083 390.974 488.123 394.798C491.053 398.488 494.358 402.668 500.548 403.057C502.354 403.174 504.513 402.634 507.047 402.004C510.285 401.2 514.316 400.196 519.361 400.196C525.001 400.196 538.835 401.175 545.378 410.231C545.642 410.604 545.158 410.994 544.299 411.11C544.122 411.127 543.946 411.135 543.792 411.135Z" fill="#002C86"/>
<path d="M158.207 403.572C150.681 401.341 150.339 401.787 147.26 401.787C139.181 402.08 142.77 412.354 150.854 412.357C279.873 412.405 501.299 412.487 538.866 412.498C541.782 412.499 543.918 409.926 543.2 407.1C543.074 406.603 542.917 406.327 542.637 405.897C542.321 405.41 541.89 404.758 541.4 404.041C540.912 403.329 540.376 402.643 539.702 402.105C536.998 399.951 533.389 399.302 531.765 399.258C530.397 399.159 527.044 398.871 524.581 398.514C520.476 397.8 516.257 394.745 514.661 393.307L511.24 389.588C508.959 387.356 504.056 382.595 502.688 381.405C500.635 379.917 499.951 379.768 497.557 379.322C492.904 378.846 487.408 384.182 485.241 386.91L479.084 394.2L474.637 399.853C472.812 401.688 468.89 405.507 467.795 406.102C466.427 406.846 465.743 406.697 464.032 405.953C460.201 404.406 456.962 404.614 455.822 404.911C455.366 405.011 453.906 405.298 451.717 405.655C448.98 406.369 446.016 404.663 444.875 403.721C443.393 402.63 439.607 400.032 436.323 398.365C432.218 396.282 429.481 396.58 427.771 396.58C424.761 396.58 420.131 398.365 418.193 399.258C417.736 399.506 415.661 400.329 411.009 401.638C406.356 402.948 400.632 401.093 398.351 400.002L391.168 395.687C390.369 395.291 388.157 394.319 385.694 393.605C381.202 392.383 376.94 393.968 374.044 395.398C372.906 395.96 371.878 396.797 370.644 397.093C369.383 397.394 367.977 397.307 367.222 397.175C366.537 397.076 364.417 396.342 361.406 394.2C357.848 391.343 354.222 385.67 352.854 383.19L344.986 368.015L337.802 353.882C337.232 352.642 335.476 349.329 333.013 345.996C330.573 342.695 328.993 342.197 327.42 341.984C326.59 341.872 325.74 341.788 324.924 341.974C321.363 342.786 318.402 346.837 317.277 348.972C314.54 354.03 308.725 364.802 307.356 367.42C306.262 369.92 302.339 374.71 300.515 376.793C300.401 376.942 299.352 377.805 296.068 380.066C291.278 382.744 289.226 381.405 285.463 380.066C278.895 377.329 272.692 379.917 270.411 381.554L264.254 386.612C263.823 386.874 262.755 387.504 261.315 388.309C260.315 388.869 259.26 389.34 258.139 389.574C253.175 390.609 249.272 389.187 247.833 388.249L236.887 381.107C236.121 380.691 234.229 379.715 232.021 378.708C231.165 378.317 230.273 377.998 229.346 377.831C225.994 377.227 223.648 377.738 221.835 378.132C215.677 379.025 208.151 387.951 205.415 390.629C203.77 392.238 201.38 394.116 199.664 395.392C198.719 396.094 197.691 396.674 196.626 397.176C196.006 397.469 195.185 397.858 194.126 398.365C191.389 399.675 187.74 399.407 186.258 399.109C185.46 398.911 182.632 398.217 177.706 397.026C170.864 396.282 166.759 402.085 164.364 403.424C161.628 404.763 160.601 404.168 158.207 403.572Z" fill="url(#paint1_linear_1900_742)"/>
<path d="M131.784 412.49C131.586 412.49 131.366 412.471 131.167 412.434C130.33 412.266 129.933 411.809 130.286 411.408C136.389 404.274 142.315 400.804 148.418 400.804C152.56 400.804 155.314 401.709 157.539 402.436C159.39 403.043 160.469 403.378 161.637 403.248C163.642 403.033 164.81 401.905 166.176 400.608C167.652 399.191 169.326 397.587 172.675 396.719C176.707 395.684 179.923 396.561 182.743 397.335C184.55 397.829 186.268 398.305 188.273 398.361C195.323 398.584 200.787 393.231 206.053 388.046C211.759 382.431 217.157 377.134 225.661 376.835C232.865 376.574 237.69 380.081 242.405 383.457C246.767 386.591 250.887 389.557 255.954 389.006C259.788 388.587 262.454 386.442 265.274 384.166C268.777 381.331 272.412 378.402 279.132 378.225C282.965 378.113 285.213 379.018 287.041 379.736C288.473 380.305 289.421 380.65 290.676 380.65H290.698C298.409 380.65 304.887 368.554 310.086 358.835C316.101 347.532 319.824 341.134 326.015 341.087C326.037 341.087 326.059 341.087 326.081 341.087C333.374 341.087 338.11 350.246 345.844 366.409C351.858 379.018 360.12 396.281 368.492 396.281C368.521 396.281 368.551 396.281 368.58 396.28C370.017 396.259 371.306 395.621 372.81 394.891C375.102 393.772 377.9 392.364 382.791 392.466C388.805 392.569 392.154 394.798 395.371 396.952C398.257 398.874 400.967 400.683 405.417 401.159C410.308 401.681 413.811 400.161 417.535 398.547C421.39 396.878 425.774 394.975 431.767 395.973C436.856 396.822 440.359 399.303 443.466 401.494C446.859 403.891 449.106 405.318 451.507 404.992C452.014 404.917 452.543 404.777 453.16 404.619C454.658 404.218 456.531 403.733 459.285 403.929C461.884 404.115 463.382 404.796 464.484 405.29C464.859 405.458 465.321 405.663 465.519 405.701C467.745 406.008 473.914 398.277 476.888 394.546C484.555 384.921 490.129 378.589 497.025 378.589C497.091 378.589 497.179 378.589 497.245 378.589C502.577 378.691 506.366 382.692 510.75 387.328C515.267 392.103 520.4 397.503 526.878 398.034C527.054 398.044 527.318 398.053 527.671 398.072C529.676 398.146 533.84 398.295 536.748 399.415C540.713 400.944 545.45 404.311 545.45 411.716C545.45 412.154 544.723 412.499 543.82 412.499C542.917 412.499 542.19 412.145 542.19 411.716C542.19 404.945 538.136 401.961 534.721 400.646C532.584 399.825 529.103 399.704 527.428 399.648C526.944 399.629 526.569 399.62 526.327 399.592C518.131 398.93 512.865 393.362 507.776 387.99C504.339 384.352 500.418 380.23 497.113 380.165C497.091 380.165 497.047 380.165 497.025 380.165C491.847 380.165 484.973 388.801 479.95 395.115C473.209 403.574 469.463 407.958 464.528 407.211C463.625 407.072 462.92 406.754 462.237 406.456C461.311 406.046 460.386 405.617 458.778 405.505C457.125 405.383 456.002 405.682 454.724 406.018C453.997 406.204 453.248 406.409 452.411 406.521C447.542 407.193 444.259 404.87 440.778 402.399C437.98 400.412 434.807 398.155 430.732 397.484C426.545 396.794 423.395 398.155 419.76 399.741C415.794 401.457 411.278 403.406 404.756 402.716C399.094 402.11 395.723 399.872 392.749 397.894C389.731 395.871 387.109 394.136 382.703 394.061C379.354 394.015 377.283 394.985 375.146 396.02C373.295 396.924 371.4 397.857 368.602 397.876C358.424 397.922 351.66 385.621 342.671 366.782C337.802 356.606 331.171 342.682 326.103 342.682H326.081C322.071 342.71 316.96 352.279 313.215 359.255C306.892 371.081 300.899 382.254 290.654 382.254C290.632 382.254 290.632 382.254 290.61 382.254C288.143 382.245 286.424 381.573 284.926 380.986C283.252 380.323 281.798 379.764 279.264 379.829C274.307 379.96 271.266 382.413 268.05 385.005C265.009 387.467 261.859 390.004 256.659 390.573C249.411 391.357 244.476 387.803 239.673 384.371C235.487 381.368 231.191 378.29 225.881 378.44C219.25 378.673 214.028 383.802 208.983 388.773C203.233 394.416 197.306 400.273 188.053 399.965C185.321 399.881 183.096 399.265 181.135 398.734C178.293 397.95 176.574 397.54 174.217 398.137C171.794 398.762 170.428 400.067 169.106 401.336C167.519 402.856 165.889 404.423 162.364 404.805C159.786 405.085 157.715 404.413 155.711 403.761C153.662 403.089 151.547 402.399 148.418 402.399C145.84 402.399 140.465 403.649 133.304 412.033C133.04 412.304 132.423 412.49 131.784 412.49Z" fill="#33A437"/>
<path d="M83.9092 207.089C83.9092 203.234 87.0345 200.108 90.8899 200.108H323.14C326.995 200.108 330.121 203.234 330.121 207.089V295.204C330.121 299.059 326.995 302.185 323.14 302.185H90.8899C87.0345 302.185 83.9092 299.059 83.9092 295.204V207.089Z" fill="#F4F4F4"/>
<path d="M293.821 263.557C293.821 259.702 296.947 256.577 300.802 256.577H301.876C305.732 256.577 308.857 259.702 308.857 263.557V284.78C308.857 288.635 305.732 291.76 301.876 291.76H300.802C296.947 291.76 293.821 288.635 293.821 284.78V263.557Z" fill="#33A437" fill-opacity="0.27"/>
<path d="M293.821 279.131C293.821 275.276 296.947 272.15 300.802 272.15H301.876C305.732 272.15 308.857 275.276 308.857 279.131V284.78C308.857 288.636 305.732 291.761 301.876 291.761H300.802C296.947 291.761 293.821 288.636 293.821 284.78V279.131Z" fill="#33A437"/>
<path d="M263.033 263.557C263.033 259.702 266.159 256.577 270.014 256.577H271.088C274.944 256.577 278.069 259.702 278.069 263.557V284.78C278.069 288.635 274.944 291.76 271.088 291.76H270.014C266.159 291.76 263.033 288.635 263.033 284.78V263.557Z" fill="#33A437" fill-opacity="0.27"/>
<path d="M263.033 285.992C263.033 282.806 265.616 280.224 268.801 280.224H272.301C275.487 280.224 278.069 282.806 278.069 285.992C278.069 289.177 275.487 291.76 272.301 291.76H268.801C265.616 291.76 263.033 289.177 263.033 285.992Z" fill="#33A437"/>
<path d="M232.247 263.557C232.247 259.702 235.372 256.577 239.228 256.577H240.302C244.157 256.577 247.283 259.702 247.283 263.557V284.78C247.283 288.635 244.157 291.76 240.302 291.76H239.228C235.372 291.76 232.247 288.635 232.247 284.78V263.557Z" fill="#33A437" fill-opacity="0.27"/>
<path d="M232.247 271.633C232.247 267.777 235.372 264.652 239.228 264.652H240.302C244.157 264.652 247.283 267.777 247.283 271.633V284.78C247.283 288.635 244.157 291.761 240.302 291.761H239.228C235.372 291.761 232.247 288.635 232.247 284.78V271.633Z" fill="#33A437"/>
<path d="M201.457 263.557C201.457 259.702 204.582 256.577 208.438 256.577H209.512C213.367 256.577 216.493 259.702 216.493 263.557V284.78C216.493 288.635 213.367 291.76 209.512 291.76H208.438C204.582 291.76 201.457 288.635 201.457 284.78V263.557Z" fill="#33A437" fill-opacity="0.27"/>
<path d="M201.457 275.094C201.457 271.239 204.582 268.113 208.438 268.113H209.512C213.367 268.113 216.493 271.239 216.493 275.094V284.781C216.493 288.636 213.367 291.761 209.512 291.761H208.438C204.582 291.761 201.457 288.636 201.457 284.781V275.094Z" fill="#33A437"/>
<path d="M170.671 263.557C170.671 259.702 173.796 256.577 177.652 256.577H178.726C182.581 256.577 185.707 259.702 185.707 263.557V284.78C185.707 288.635 182.581 291.76 178.726 291.76H177.652C173.796 291.76 170.671 288.635 170.671 284.78V263.557Z" fill="#33A437" fill-opacity="0.27"/>
<path d="M170.671 279.131C170.671 275.276 173.796 272.15 177.652 272.15H178.726C182.581 272.15 185.707 275.276 185.707 279.131V284.78C185.707 288.636 182.581 291.761 178.726 291.761H177.652C173.796 291.761 170.671 288.636 170.671 284.78V279.131Z" fill="#33A437"/>
<path d="M139.882 263.557C139.882 259.702 143.007 256.577 146.863 256.577H147.937C151.792 256.577 154.918 259.702 154.918 263.557V284.78C154.918 288.635 151.792 291.76 147.937 291.76H146.863C143.007 291.76 139.882 288.635 139.882 284.78V263.557Z" fill="#33A437" fill-opacity="0.27"/>
<path d="M139.882 269.903C139.882 266.047 143.007 262.922 146.863 262.922H147.937C151.792 262.922 154.918 266.047 154.918 269.903V284.78C154.918 288.636 151.792 291.761 147.937 291.761H146.863C143.007 291.761 139.882 288.636 139.882 284.78V269.903Z" fill="#33A437"/>
<path d="M109.096 263.557C109.096 259.702 112.221 256.577 116.076 256.577H117.151C121.006 256.577 124.131 259.702 124.131 263.557V284.78C124.131 288.635 121.006 291.76 117.151 291.76H116.076C112.221 291.76 109.096 288.635 109.096 284.78V263.557Z" fill="#33A437" fill-opacity="0.27"/>
<path d="M109.096 284.321C109.096 280.465 112.221 277.34 116.076 277.34H117.151C121.006 277.34 124.131 280.465 124.131 284.321V284.779C124.131 288.634 121.006 291.759 117.151 291.759H116.076C112.221 291.759 109.096 288.634 109.096 284.779V284.321Z" fill="#33A437"/>
<path d="M320.379 206.217C318.451 206.217 316.889 207.78 316.889 209.708C316.889 211.635 318.451 213.198 320.379 213.198C322.307 213.198 323.869 211.635 323.869 209.708C323.869 207.78 322.307 206.217 320.379 206.217ZM320.379 207.962C320.62 207.962 320.815 208.158 320.815 208.399C320.815 208.64 320.62 208.835 320.379 208.835C320.138 208.835 319.943 208.64 319.943 208.399C319.943 208.158 320.138 207.962 320.379 207.962ZM321.033 211.453H319.725C319.604 211.453 319.506 211.355 319.506 211.235C319.506 211.114 319.604 211.017 319.725 211.017H319.943V209.708H319.725C319.604 209.708 319.506 209.61 319.506 209.489C319.506 209.369 319.604 209.271 319.725 209.271H320.597C320.718 209.271 320.815 209.369 320.815 209.489V211.017H321.033C321.154 211.017 321.252 211.114 321.252 211.235C321.252 211.355 321.154 211.453 321.033 211.453Z" fill="#0DCAF0"/>
<path d="M344.667 211.371C344.667 205.588 349.355 200.9 355.138 200.9H580.408C586.191 200.9 590.879 205.588 590.879 211.371V292.505C590.879 298.288 586.191 302.976 580.408 302.976H355.138C349.355 302.976 344.667 298.288 344.667 292.505V211.371Z" fill="#F4F4F4"/>
<path d="M555.403 264.748C555.403 260.514 558.835 257.082 563.069 257.082C567.302 257.082 570.734 260.514 570.734 264.748V284.6C570.734 288.834 567.302 292.266 563.069 292.266C558.835 292.266 555.403 288.834 555.403 284.6V264.748Z" fill="#DAE6FF"/>
<path d="M555.403 280.321C555.403 276.088 558.835 272.656 563.069 272.656C567.302 272.656 570.734 276.088 570.734 280.321V284.601C570.734 288.834 567.302 292.266 563.069 292.266C558.835 292.266 555.403 288.834 555.403 284.601V280.321Z" fill="#002C86"/>
<path d="M524.009 264.748C524.009 260.514 527.441 257.082 531.674 257.082C535.908 257.082 539.34 260.514 539.34 264.748V284.6C539.34 288.834 535.908 292.266 531.674 292.266C527.441 292.266 524.009 288.834 524.009 284.6V264.748Z" fill="#DAE6FF"/>
<path d="M524.009 286.497C524.009 283.311 526.591 280.729 529.777 280.729H533.572C536.758 280.729 539.34 283.311 539.34 286.497C539.34 289.682 536.758 292.265 533.572 292.265H529.777C526.591 292.265 524.009 289.682 524.009 286.497Z" fill="#002C86"/>
<path d="M492.618 264.748C492.618 260.514 496.05 257.082 500.284 257.082C504.517 257.082 507.949 260.514 507.949 264.748V284.6C507.949 288.834 504.517 292.266 500.284 292.266C496.05 292.266 492.618 288.834 492.618 284.6V264.748Z" fill="#DAE6FF"/>
<path d="M492.618 272.822C492.618 268.588 496.05 265.156 500.284 265.156C504.517 265.156 507.949 268.588 507.949 272.822V284.599C507.949 288.833 504.517 292.265 500.284 292.265C496.05 292.265 492.618 288.833 492.618 284.599V272.822Z" fill="#002C86"/>
<path d="M461.226 264.748C461.226 260.514 464.658 257.082 468.891 257.082C473.125 257.082 476.557 260.514 476.557 264.748V284.6C476.557 288.834 473.125 292.266 468.891 292.266C464.658 292.266 461.226 288.834 461.226 284.6V264.748Z" fill="#DAE6FF"/>
<path d="M461.226 276.284C461.226 272.05 464.658 268.618 468.891 268.618C473.125 268.618 476.557 272.05 476.557 276.284V284.601C476.557 288.834 473.125 292.266 468.891 292.266C464.658 292.266 461.226 288.834 461.226 284.601V276.284Z" fill="#002C86"/>
<path d="M429.833 264.748C429.833 260.514 433.265 257.082 437.499 257.082C441.732 257.082 445.164 260.514 445.164 264.748V284.6C445.164 288.834 441.732 292.266 437.499 292.266C433.265 292.266 429.833 288.834 429.833 284.6V264.748Z" fill="#DAE6FF"/>
<path d="M429.833 280.321C429.833 276.088 433.265 272.656 437.499 272.656C441.732 272.656 445.164 276.088 445.164 280.321V284.601C445.164 288.834 441.732 292.266 437.499 292.266C433.265 292.266 429.833 288.834 429.833 284.601V280.321Z" fill="#002C86"/>
<path d="M398.44 264.748C398.44 260.514 401.872 257.082 406.106 257.082C410.34 257.082 413.771 260.514 413.771 264.748V284.6C413.771 288.834 410.34 292.266 406.106 292.266C401.872 292.266 398.44 288.834 398.44 284.6V264.748Z" fill="#DAE6FF"/>
<path d="M398.44 271.092C398.44 266.859 401.872 263.427 406.106 263.427C410.34 263.427 413.771 266.859 413.771 271.092V284.6C413.771 288.834 410.34 292.266 406.106 292.266C401.872 292.266 398.44 288.834 398.44 284.6V271.092Z" fill="#002C86"/>
<path d="M367.049 264.748C367.049 260.514 370.481 257.082 374.714 257.082C378.948 257.082 382.38 260.514 382.38 264.748V284.6C382.38 288.834 378.948 292.266 374.714 292.266C370.481 292.266 367.049 288.834 367.049 284.6V264.748Z" fill="#DAE6FF"/>
<path d="M367.049 285.056C367.049 281.074 370.277 277.846 374.259 277.846H375.17C379.152 277.846 382.38 281.074 382.38 285.056C382.38 289.038 379.152 292.266 375.17 292.266H374.259C370.277 292.266 367.049 289.038 367.049 285.056Z" fill="#002C86"/>
<path d="M581.279 207.09C579.352 207.09 577.789 208.653 577.789 210.58C577.789 212.508 579.352 214.071 581.279 214.071C583.207 214.071 584.77 212.508 584.77 210.58C584.77 208.653 583.207 207.09 581.279 207.09ZM581.279 208.835C581.52 208.835 581.716 209.03 581.716 209.271C581.716 209.512 581.52 209.708 581.279 209.708C581.038 209.708 580.843 209.512 580.843 209.271C580.843 209.03 581.038 208.835 581.279 208.835ZM581.934 212.325H580.625C580.504 212.325 580.407 212.228 580.407 212.107C580.407 211.987 580.504 211.889 580.625 211.889H580.843V210.58H580.625C580.504 210.58 580.407 210.483 580.407 210.362C580.407 210.242 580.504 210.144 580.625 210.144H581.498C581.618 210.144 581.716 210.242 581.716 210.362V211.889H581.934C582.054 211.889 582.152 211.987 582.152 212.107C582.152 212.228 582.054 212.325 581.934 212.325Z" fill="#0DCAF0"/>
<path d="M104.053 233.343C104.053 230.721 106.178 228.596 108.8 228.596H166.454C169.076 228.596 171.201 230.721 171.201 233.343C171.201 235.966 169.076 238.091 166.454 238.091H108.8C106.178 238.091 104.053 235.966 104.053 233.343Z" fill="#D5D5D5"/>
<path d="M367.051 234.926C367.051 232.304 369.176 230.179 371.799 230.179H429.452C432.074 230.179 434.199 232.304 434.199 234.926C434.199 237.549 432.074 239.674 429.452 239.674H371.799C369.176 239.674 367.051 237.549 367.051 234.926Z" fill="#D5D5D5"/>
<path d="M104.053 223.056C104.053 221.308 105.47 219.891 107.218 219.891H147.892C149.64 219.891 151.057 221.308 151.057 223.056C151.057 224.804 149.64 226.221 147.892 226.221H107.218C105.47 226.221 104.053 224.804 104.053 223.056Z" fill="#D5D5D5"/>
<path d="M367.051 224.242C367.051 222.713 368.291 221.473 369.82 221.473H411.285C412.815 221.473 414.055 222.713 414.055 224.242C414.055 225.772 412.815 227.012 411.285 227.012H369.82C368.291 227.012 367.051 225.772 367.051 224.242Z" fill="#D5D5D5"/>
<path d="M261.852 235.717C261.852 233.532 263.623 231.761 265.808 231.761H304.899C307.084 231.761 308.856 233.532 308.856 235.717C308.856 237.902 307.084 239.674 304.899 239.674H265.808C263.623 239.674 261.852 237.902 261.852 235.717Z" fill="#FFB422"/>
<path d="M524.85 236.509C524.85 234.324 526.621 232.552 528.806 232.552H567.897C570.082 232.552 571.854 234.324 571.854 236.509C571.854 238.694 570.082 240.465 567.897 240.465H528.806C526.621 240.465 524.85 238.694 524.85 236.509Z" fill="#FFB422"/>
<path d="M83.9092 55.2596C83.9092 49.4766 88.5972 44.7886 94.3802 44.7886H233.121C238.904 44.7886 243.592 49.4766 243.592 55.2596V97.1437C243.592 102.927 238.904 107.615 233.121 107.615H94.3802C88.5972 107.615 83.9092 102.927 83.9092 97.1437V55.2596Z" fill="#F4F4F4"/>
<path d="M233.993 50.8965C232.066 50.8965 230.503 52.4592 230.503 54.3868C230.503 56.3146 232.066 57.8772 233.993 57.8772C235.921 57.8772 237.484 56.3146 237.484 54.3868C237.484 52.4592 235.921 50.8965 233.993 50.8965ZM233.993 52.6417C234.234 52.6417 234.43 52.837 234.43 53.0779C234.43 53.319 234.234 53.5142 233.993 53.5142C233.752 53.5142 233.557 53.319 233.557 53.0779C233.557 52.837 233.752 52.6417 233.993 52.6417ZM234.648 56.132H233.339C233.218 56.132 233.121 56.0344 233.121 55.9139C233.121 55.7934 233.218 55.6957 233.339 55.6957H233.557V54.3868H233.339C233.218 54.3868 233.121 54.2893 233.121 54.1687C233.121 54.0482 233.218 53.9505 233.339 53.9505H234.211C234.332 53.9505 234.43 54.0482 234.43 54.1687V55.6957H234.648C234.768 55.6957 234.866 55.7934 234.866 55.9139C234.866 56.0344 234.768 56.132 234.648 56.132Z" fill="#0DCAF0"/>
<path d="M124.382 72.5928C124.382 70.1892 126.33 68.2407 128.734 68.2407H186.255C188.658 68.2407 190.607 70.1892 190.607 72.5928C190.607 74.9964 188.658 76.9449 186.255 76.9449H128.734C126.33 76.9449 124.382 74.9964 124.382 72.5928Z" fill="#33A437"/>
<path d="M124.051 82.7439C124.051 82.0211 124.637 81.4351 125.36 81.4351H220.471C221.194 81.4351 221.78 82.0211 221.78 82.7439C221.78 83.4668 221.194 84.0528 220.471 84.0528H125.36C124.637 84.0528 124.051 83.4668 124.051 82.7439Z" fill="#D1D1D1"/>
<path d="M124.051 82.6375C124.051 81.9146 124.637 81.3286 125.36 81.3286H150.665C151.388 81.3286 151.974 81.9146 151.974 82.6375C151.974 83.3604 151.388 83.9464 150.665 83.9464H125.36C124.637 83.9464 124.051 83.3604 124.051 82.6375Z" fill="#FF4B00"/>
<path d="M124.382 61.0426C124.382 59.2945 125.799 57.8774 127.547 57.8774H163.094C164.842 57.8774 166.259 59.2945 166.259 61.0426C166.259 62.7907 164.842 64.2078 163.094 64.2078H127.547C125.799 64.2078 124.382 62.7907 124.382 61.0426Z" fill="white"/>
<path d="M124.051 91.3646C124.051 89.6779 125.418 88.3105 127.105 88.3105H149.993C151.68 88.3105 153.047 89.6779 153.047 91.3646C153.047 93.0513 151.68 94.4186 149.993 94.4186H127.105C125.418 94.4186 124.051 93.0513 124.051 91.3646Z" fill="white"/>
<path d="M115.997 84.5353H98.2662V66.8041C98.2662 66.2151 97.7835 65.7324 97.1986 65.7324C96.6096 65.7324 96.127 66.2151 96.127 66.8041V85.6069C96.127 86.1918 96.6096 86.6745 97.1986 86.6745H116.001C116.59 86.6745 117.073 86.1918 117.073 85.6028C117.073 85.0138 116.586 84.5353 115.997 84.5353Z" fill="#FF4B00"/>
<path d="M109.734 75.6673C109.19 75.8678 108.581 75.3851 108.131 75.1438C106.683 74.3053 104.826 74.6734 103.82 76.015L100.359 80.5879C100.004 81.0583 100.098 81.7332 100.568 82.089C101.038 82.4449 101.713 82.3508 102.069 81.8804L105.529 77.3075C106.106 76.4895 107.104 76.9517 107.755 77.4139C109.297 78.3587 111.481 77.7493 112.327 76.1541L114.499 72.2315L114.835 73.3032C115.015 73.8717 115.632 74.1826 116.189 74.0067C116.757 73.8267 117.068 73.2214 116.892 72.6528L115.792 69.1802C115.624 68.6239 114.994 68.309 114.438 68.4767L110.945 69.577C109.603 69.9737 110.274 72.0638 111.583 71.6344L112.536 71.3317L110.438 75.1193C110.291 75.3851 110.037 75.5937 109.734 75.6673Z" fill="#FF4B00"/>
<path d="M257.551 55.2596C257.551 49.4766 262.239 44.7886 268.022 44.7886H406.763C412.546 44.7886 417.234 49.4766 417.234 55.2596V96.8294C417.234 102.612 412.546 107.3 406.763 107.3H268.022C262.239 107.3 257.551 102.612 257.551 96.8294V55.2596Z" fill="#F4F4F4"/>
<path d="M407.635 50.8975C405.707 50.8975 404.145 52.4602 404.145 54.3878C404.145 56.3155 405.707 57.8781 407.635 57.8781C409.563 57.8781 411.125 56.3155 411.125 54.3878C411.125 52.4602 409.563 50.8975 407.635 50.8975ZM407.635 52.6426C407.876 52.6426 408.071 52.838 408.071 53.0789C408.071 53.32 407.876 53.5152 407.635 53.5152C407.394 53.5152 407.199 53.32 407.199 53.0789C407.199 52.838 407.394 52.6426 407.635 52.6426ZM408.289 56.133H406.98C406.86 56.133 406.762 56.0354 406.762 55.9148C406.762 55.7944 406.86 55.6967 406.98 55.6967H407.199V54.3878H406.98C406.86 54.3878 406.762 54.2902 406.762 54.1697C406.762 54.0492 406.86 53.9515 406.98 53.9515H407.853C407.973 53.9515 408.071 54.0492 408.071 54.1697V55.6967H408.289C408.41 55.6967 408.507 55.7944 408.507 55.9148C408.507 56.0354 408.41 56.133 408.289 56.133Z" fill="#0DCAF0"/>
<path d="M298.341 72.5938C298.341 70.1902 300.289 68.2417 302.693 68.2417H360.214C362.617 68.2417 364.566 70.1902 364.566 72.5938C364.566 74.9974 362.617 76.9459 360.214 76.9459H302.693C300.289 76.9459 298.341 74.9974 298.341 72.5938Z" fill="#33A437"/>
<path d="M298.01 82.7464C298.01 82.0235 298.596 81.4375 299.319 81.4375H394.43C395.153 81.4375 395.739 82.0235 395.739 82.7464C395.739 83.4693 395.153 84.0553 394.43 84.0553H299.319C298.596 84.0553 298.01 83.4693 298.01 82.7464Z" fill="#D1D1D1"/>
<path d="M298.01 82.639C298.01 81.9161 298.596 81.3301 299.319 81.3301H324.624C325.346 81.3301 325.933 81.9161 325.933 82.639C325.933 83.3618 325.346 83.9478 324.624 83.9478H299.319C298.596 83.9478 298.01 83.3618 298.01 82.639Z" fill="#FF4B00"/>
<path d="M298.341 61.0436C298.341 59.2955 299.758 57.8784 301.506 57.8784H337.053C338.801 57.8784 340.218 59.2955 340.218 61.0436C340.218 62.7916 338.801 64.2087 337.053 64.2087H301.506C299.758 64.2087 298.341 62.7916 298.341 61.0436Z" fill="white"/>
<path d="M298.01 91.3651C298.01 89.6784 299.377 88.311 301.064 88.311H323.952C325.639 88.311 327.006 89.6784 327.006 91.3651C327.006 93.0518 325.639 94.4191 323.952 94.4191H301.064C299.377 94.4191 298.01 93.0518 298.01 91.3651Z" fill="white"/>
<path d="M275.837 67.3296C275.837 67.1853 275.879 67.044 275.957 66.9228C276.036 66.8016 276.147 66.7057 276.279 66.6467C277.874 65.9326 279.622 65.629 281.364 65.7635C283.106 65.8979 284.787 66.4662 286.253 67.4166C287.72 68.3669 288.925 69.669 289.759 71.2044C290.593 72.7397 291.03 74.4593 291.029 76.2066C291.029 76.405 290.95 76.5952 290.81 76.7355C290.67 76.8757 290.48 76.9545 290.281 76.9545L280.558 76.9545C280.414 76.9546 280.273 76.9128 280.151 76.8342C280.03 76.7557 279.934 76.6437 279.875 76.5119L275.904 67.6349C275.861 67.539 275.838 67.435 275.837 67.3296Z" fill="#345099" fill-opacity="0.66"/>
<path d="M289.337 78.8985C289.348 78.8442 289.347 78.7882 289.334 78.7345C289.321 78.6808 289.296 78.6307 289.261 78.5878C289.226 78.5449 289.182 78.5103 289.132 78.4865C289.082 78.4627 289.027 78.4503 288.972 78.4502L280.558 78.4502C280.124 78.4498 279.701 78.3243 279.337 78.0888C278.974 77.8532 278.686 77.5177 278.509 77.1226L274.901 69.0604C274.879 69.0104 274.846 68.9659 274.805 68.9301C274.763 68.8943 274.715 68.868 274.662 68.8531C274.609 68.8381 274.554 68.8349 274.5 68.8437C274.446 68.8525 274.394 68.873 274.349 68.9038C273.442 69.5208 272.645 70.2867 271.993 71.1691C270.749 72.8409 270.08 74.8706 270.087 76.9543C270.087 82.3156 274.448 86.6774 279.81 86.6774C284.505 86.6774 288.434 83.3313 289.337 78.8985Z" fill="#002C86"/>
<path d="M431.196 56.1327C431.196 50.3497 435.884 45.6616 441.667 45.6616H580.408C586.191 45.6616 590.879 50.3497 590.879 56.1326V97.7024C590.879 103.485 586.191 108.173 580.408 108.173H441.667C435.884 108.173 431.196 103.485 431.196 97.7024V56.1327Z" fill="#F4F4F4"/>
<path d="M581.28 51.77C579.353 51.77 577.79 53.3327 577.79 55.2604C577.79 57.1881 579.353 58.7507 581.28 58.7507C583.208 58.7507 584.771 57.1881 584.771 55.2604C584.771 53.3327 583.208 51.77 581.28 51.77ZM581.28 53.5152C581.521 53.5152 581.717 53.7105 581.717 53.9515C581.717 54.1925 581.521 54.3878 581.28 54.3878C581.039 54.3878 580.844 54.1925 580.844 53.9515C580.844 53.7105 581.039 53.5152 581.28 53.5152ZM581.935 57.0055H580.626C580.505 57.0055 580.408 56.908 580.408 56.7874C580.408 56.6669 580.505 56.5692 580.626 56.5692H580.844V55.2604H580.626C580.505 55.2604 580.408 55.1628 580.408 55.0422C580.408 54.9217 580.505 54.8241 580.626 54.8241H581.499C581.619 54.8241 581.717 54.9217 581.717 55.0422V56.5692H581.935C582.055 56.5692 582.153 56.6669 582.153 56.7874C582.153 56.908 582.055 57.0055 581.935 57.0055Z" fill="#0DCAF0"/>
<path d="M471.985 73.4663C471.985 71.0628 473.934 69.1143 476.337 69.1143H533.858C536.262 69.1143 538.21 71.0628 538.21 73.4663C538.21 75.8699 536.262 77.8184 533.858 77.8184H476.337C473.934 77.8184 471.985 75.8699 471.985 73.4663Z" fill="#33A437"/>
<path d="M471.653 83.6194C471.653 82.8966 472.239 82.3105 472.962 82.3105H568.074C568.797 82.3105 569.383 82.8966 569.383 83.6194C569.383 84.3423 568.797 84.9283 568.074 84.9283H472.962C472.239 84.9283 471.653 84.3423 471.653 83.6194Z" fill="#D1D1D1"/>
<path d="M471.653 83.5115C471.653 82.7886 472.239 82.2026 472.962 82.2026H498.267C498.99 82.2026 499.576 82.7886 499.576 83.5115C499.576 84.2344 498.99 84.8204 498.267 84.8204H472.962C472.239 84.8204 471.653 84.2344 471.653 83.5115Z" fill="#FF4B00"/>
<path d="M471.985 61.9161C471.985 60.1681 473.402 58.751 475.151 58.751H510.698C512.446 58.751 513.863 60.1681 513.863 61.9161C513.863 63.6642 512.446 65.0813 510.698 65.0813H475.151C473.402 65.0813 471.985 63.6642 471.985 61.9161Z" fill="white"/>
<path d="M471.653 92.2376C471.653 90.5509 473.021 89.1836 474.707 89.1836H497.596C499.283 89.1836 500.65 90.5509 500.65 92.2376C500.65 93.9243 499.283 95.2917 497.596 95.2917H474.707C473.021 95.2917 471.653 93.9243 471.653 92.2376Z" fill="white"/>
<path d="M445.229 87.5455C444.403 87.5455 443.733 86.8765 443.733 86.0496V77.0745C443.733 76.2477 444.403 75.5786 445.229 75.5786C446.055 75.5786 446.725 76.2477 446.725 77.0745V86.0496C446.725 86.8765 446.055 87.5455 445.229 87.5455Z" fill="black"/>
<path d="M451.214 87.5461C450.388 87.5461 449.718 86.877 449.718 86.0502V68.0999C449.718 67.2731 450.388 66.604 451.214 66.604C452.04 66.604 452.709 67.2731 452.709 68.0999V86.0502C452.709 86.877 452.04 87.5461 451.214 87.5461Z" fill="black"/>
<path d="M457.196 87.5469C456.369 87.5469 455.7 86.8779 455.7 86.0511V80.0676C455.7 79.2408 456.369 78.5718 457.196 78.5718C458.023 78.5718 458.692 79.2408 458.692 80.0676V86.0511C458.692 86.8779 458.023 87.5469 457.196 87.5469Z" fill="black"/>
<path d="M463.178 87.545C462.352 87.545 461.683 86.876 461.683 86.0492V74.0823C461.683 73.2555 462.352 72.5864 463.178 72.5864C464.005 72.5864 464.674 73.2555 464.674 74.0823V86.0492C464.674 86.876 464.005 87.545 463.178 87.545Z" fill="black"/>
<path d="M83.9092 132.919C83.9092 127.136 88.5972 122.448 94.3802 122.448H233.121C238.904 122.448 243.592 127.136 243.592 132.919V174.803C243.592 180.586 238.904 185.274 233.121 185.274H94.3802C88.5972 185.274 83.9092 180.586 83.9092 174.803V132.919Z" fill="#F4F4F4"/>
<path d="M233.993 128.557C232.066 128.557 230.503 130.119 230.503 132.047C230.503 133.975 232.066 135.537 233.993 135.537C235.921 135.537 237.484 133.975 237.484 132.047C237.484 130.119 235.921 128.557 233.993 128.557ZM233.993 130.302C234.234 130.302 234.43 130.497 234.43 130.738C234.43 130.979 234.234 131.174 233.993 131.174C233.752 131.174 233.557 130.979 233.557 130.738C233.557 130.497 233.752 130.302 233.993 130.302ZM234.648 133.792H233.339C233.218 133.792 233.121 133.695 233.121 133.574C233.121 133.454 233.218 133.356 233.339 133.356H233.557V132.047H233.339C233.218 132.047 233.121 131.949 233.121 131.829C233.121 131.708 233.218 131.611 233.339 131.611H234.211C234.332 131.611 234.43 131.708 234.43 131.829V133.356H234.648C234.768 133.356 234.866 133.454 234.866 133.574C234.866 133.695 234.768 133.792 234.648 133.792Z" fill="#0DCAF0"/>
<path d="M124.382 150.252C124.382 147.849 126.33 145.9 128.734 145.9H186.255C188.658 145.9 190.607 147.849 190.607 150.252C190.607 152.656 188.658 154.605 186.255 154.605H128.734C126.33 154.605 124.382 152.656 124.382 150.252Z" fill="#33A437"/>
<path d="M124.051 160.406C124.051 159.683 124.637 159.097 125.36 159.097H220.471C221.194 159.097 221.78 159.683 221.78 160.406C221.78 161.129 221.194 161.715 220.471 161.715H125.36C124.637 161.715 124.051 161.129 124.051 160.406Z" fill="#D1D1D1"/>
<path d="M124.051 160.299C124.051 159.576 124.637 158.99 125.36 158.99H150.665C151.388 158.99 151.974 159.576 151.974 160.299C151.974 161.022 151.388 161.608 150.665 161.608H125.36C124.637 161.608 124.051 161.022 124.051 160.299Z" fill="#FF4B00"/>
<path d="M124.382 138.703C124.382 136.955 125.799 135.538 127.547 135.538H163.094C164.842 135.538 166.259 136.955 166.259 138.703C166.259 140.451 164.842 141.868 163.094 141.868H127.547C125.799 141.868 124.382 140.451 124.382 138.703Z" fill="white"/>
<path d="M124.051 169.025C124.051 167.339 125.418 165.971 127.105 165.971H149.993C151.68 165.971 153.047 167.339 153.047 169.025C153.047 170.712 151.68 172.079 149.993 172.079H127.105C125.418 172.079 124.051 170.712 124.051 169.025Z" fill="white"/>
<path d="M115.997 162.195H98.2662V144.464C98.2662 143.875 97.7835 143.392 97.1986 143.392C96.6096 143.392 96.127 143.875 96.127 144.464V163.267C96.127 163.851 96.6096 164.334 97.1986 164.334H116.001C116.59 164.334 117.073 163.851 117.073 163.262C117.073 162.674 116.586 162.195 115.997 162.195Z" fill="#FF4B00"/>
<path d="M109.734 153.327C109.19 153.527 108.581 153.044 108.131 152.803C106.683 151.964 104.826 152.333 103.82 153.674L100.359 158.247C100.004 158.717 100.098 159.392 100.568 159.748C101.038 160.104 101.713 160.01 102.069 159.54L105.529 154.967C106.106 154.149 107.104 154.611 107.755 155.073C109.297 156.018 111.481 155.408 112.327 153.813L114.499 149.891L114.835 150.962C115.015 151.531 115.632 151.842 116.189 151.666C116.757 151.486 117.068 150.881 116.892 150.312L115.792 146.839C115.624 146.283 114.994 145.968 114.438 146.136L110.945 147.236C109.603 147.633 110.274 149.723 111.583 149.294L112.536 148.991L110.438 152.778C110.291 153.044 110.037 153.253 109.734 153.327Z" fill="#FF4B00"/>
<path d="M257.551 132.92C257.551 127.137 262.239 122.449 268.022 122.449H406.763C412.546 122.449 417.234 127.137 417.234 132.92V174.49C417.234 180.272 412.546 184.961 406.763 184.961H268.022C262.239 184.961 257.551 180.273 257.551 174.49V132.92Z" fill="#F4F4F4"/>
<path d="M407.635 128.557C405.707 128.557 404.145 130.119 404.145 132.047C404.145 133.975 405.707 135.537 407.635 135.537C409.563 135.537 411.125 133.975 411.125 132.047C411.125 130.119 409.563 128.557 407.635 128.557ZM407.635 130.302C407.876 130.302 408.071 130.497 408.071 130.738C408.071 130.979 407.876 131.174 407.635 131.174C407.394 131.174 407.199 130.979 407.199 130.738C407.199 130.497 407.394 130.302 407.635 130.302ZM408.289 133.792H406.98C406.86 133.792 406.762 133.695 406.762 133.574C406.762 133.454 406.86 133.356 406.98 133.356H407.199V132.047H406.98C406.86 132.047 406.762 131.949 406.762 131.829C406.762 131.708 406.86 131.611 406.98 131.611H407.853C407.973 131.611 408.071 131.708 408.071 131.829V133.356H408.289C408.41 133.356 408.507 133.454 408.507 133.574C408.507 133.695 408.41 133.792 408.289 133.792Z" fill="#0DCAF0"/>
<path d="M298.341 150.252C298.341 147.848 300.289 145.899 302.693 145.899H360.214C362.617 145.899 364.566 147.848 364.566 150.252C364.566 152.655 362.617 154.604 360.214 154.604H302.693C300.289 154.604 298.341 152.655 298.341 150.252Z" fill="#33A437"/>
<path d="M298.01 160.404C298.01 159.681 298.596 159.095 299.319 159.095H394.43C395.153 159.095 395.739 159.681 395.739 160.404C395.739 161.127 395.153 161.713 394.43 161.713H299.319C298.596 161.713 298.01 161.127 298.01 160.404Z" fill="#D1D1D1"/>
<path d="M298.01 160.297C298.01 159.574 298.596 158.988 299.319 158.988H324.624C325.346 158.988 325.933 159.574 325.933 160.297C325.933 161.02 325.346 161.606 324.624 161.606H299.319C298.596 161.606 298.01 161.02 298.01 160.297Z" fill="#FF4B00"/>
<path d="M298.341 138.701C298.341 136.953 299.758 135.536 301.506 135.536H337.053C338.801 135.536 340.218 136.953 340.218 138.701C340.218 140.449 338.801 141.866 337.053 141.866H301.506C299.758 141.866 298.341 140.449 298.341 138.701Z" fill="white"/>
<path d="M298.01 169.024C298.01 167.338 299.377 165.97 301.064 165.97H323.952C325.639 165.97 327.006 167.338 327.006 169.024C327.006 170.711 325.639 172.078 323.952 172.078H301.064C299.377 172.078 298.01 170.711 298.01 169.024Z" fill="white"/>
<path d="M275.837 144.988C275.837 144.844 275.879 144.703 275.957 144.581C276.036 144.46 276.147 144.364 276.279 144.305C277.874 143.591 279.622 143.288 281.364 143.422C283.106 143.557 284.787 144.125 286.253 145.075C287.72 146.026 288.925 147.328 289.759 148.863C290.593 150.398 291.03 152.118 291.029 153.865C291.029 154.064 290.95 154.254 290.81 154.394C290.67 154.534 290.48 154.613 290.281 154.613L280.558 154.613C280.414 154.613 280.273 154.571 280.151 154.493C280.03 154.414 279.934 154.302 279.875 154.171L275.904 145.294C275.861 145.198 275.838 145.094 275.837 144.988Z" fill="#345099" fill-opacity="0.66"/>
<path d="M289.337 156.558C289.348 156.504 289.347 156.448 289.334 156.394C289.321 156.34 289.296 156.29 289.261 156.247C289.226 156.205 289.182 156.17 289.132 156.146C289.082 156.122 289.027 156.11 288.972 156.11L280.558 156.11C280.124 156.109 279.701 155.984 279.337 155.748C278.974 155.513 278.686 155.177 278.509 154.782L274.901 146.72C274.879 146.67 274.846 146.626 274.805 146.59C274.763 146.554 274.715 146.528 274.662 146.513C274.609 146.498 274.554 146.495 274.5 146.503C274.446 146.512 274.394 146.533 274.349 146.563C273.442 147.18 272.645 147.946 271.993 148.829C270.749 150.501 270.08 152.53 270.087 154.614C270.087 159.975 274.448 164.337 279.81 164.337C284.505 164.337 288.434 160.991 289.337 156.558Z" fill="#002C86"/>
<path d="M431.196 133.793C431.196 128.01 435.884 123.322 441.667 123.322H580.408C586.191 123.322 590.879 128.01 590.879 133.793V175.363C590.879 181.146 586.191 185.834 580.408 185.834H441.667C435.884 185.834 431.196 181.146 431.196 175.363V133.793Z" fill="#F4F4F4"/>
<path d="M581.28 129.429C579.353 129.429 577.79 130.991 577.79 132.919C577.79 134.847 579.353 136.409 581.28 136.409C583.208 136.409 584.771 134.847 584.771 132.919C584.771 130.991 583.208 129.429 581.28 129.429ZM581.28 131.174C581.521 131.174 581.717 131.369 581.717 131.61C581.717 131.851 581.521 132.046 581.28 132.046C581.039 132.046 580.844 131.851 580.844 131.61C580.844 131.369 581.039 131.174 581.28 131.174ZM581.935 134.664H580.626C580.505 134.664 580.408 134.567 580.408 134.446C580.408 134.326 580.505 134.228 580.626 134.228H580.844V132.919H580.626C580.505 132.919 580.408 132.821 580.408 132.701C580.408 132.58 580.505 132.483 580.626 132.483H581.499C581.619 132.483 581.717 132.58 581.717 132.701V134.228H581.935C582.055 134.228 582.153 134.326 582.153 134.446C582.153 134.567 582.055 134.664 581.935 134.664Z" fill="#0DCAF0"/>
<path d="M471.985 151.126C471.985 148.722 473.934 146.774 476.337 146.774H533.858C536.262 146.774 538.21 148.722 538.21 151.126C538.21 153.53 536.262 155.478 533.858 155.478H476.337C473.934 155.478 471.985 153.53 471.985 151.126Z" fill="#33A437"/>
<path d="M471.653 161.281C471.653 160.558 472.239 159.972 472.962 159.972H568.074C568.797 159.972 569.383 160.558 569.383 161.281C569.383 162.003 568.797 162.589 568.074 162.589H472.962C472.239 162.589 471.653 162.003 471.653 161.281Z" fill="#D1D1D1"/>
<path d="M471.653 161.173C471.653 160.45 472.239 159.864 472.962 159.864H498.267C498.99 159.864 499.576 160.45 499.576 161.173C499.576 161.896 498.99 162.482 498.267 162.482H472.962C472.239 162.482 471.653 161.896 471.653 161.173Z" fill="#FF4B00"/>
<path d="M471.985 139.576C471.985 137.828 473.402 136.411 475.151 136.411H510.698C512.446 136.411 513.863 137.828 513.863 139.576C513.863 141.324 512.446 142.741 510.698 142.741H475.151C473.402 142.741 471.985 141.324 471.985 139.576Z" fill="white"/>
<path d="M471.653 169.897C471.653 168.211 473.021 166.843 474.707 166.843H497.596C499.283 166.843 500.65 168.211 500.65 169.897C500.65 171.584 499.283 172.951 497.596 172.951H474.707C473.021 172.951 471.653 171.584 471.653 169.897Z" fill="white"/>
<path d="M445.229 165.205C444.403 165.205 443.733 164.536 443.733 163.709V154.734C443.733 153.907 444.403 153.238 445.229 153.238C446.055 153.238 446.725 153.907 446.725 154.734V163.709C446.725 164.536 446.055 165.205 445.229 165.205Z" fill="black"/>
<path d="M451.214 165.205C450.388 165.205 449.718 164.536 449.718 163.709V145.759C449.718 144.932 450.388 144.263 451.214 144.263C452.04 144.263 452.709 144.932 452.709 145.759V163.709C452.709 164.536 452.04 165.205 451.214 165.205Z" fill="black"/>
<path d="M457.196 165.207C456.369 165.207 455.7 164.538 455.7 163.711V157.727C455.7 156.9 456.369 156.231 457.196 156.231C458.023 156.231 458.692 156.9 458.692 157.727V163.711C458.692 164.538 458.023 165.207 457.196 165.207Z" fill="black"/>
<path d="M463.178 165.205C462.352 165.205 461.683 164.536 461.683 163.709V151.742C461.683 150.916 462.352 150.247 463.178 150.247C464.005 150.247 464.674 150.916 464.674 151.742V163.709C464.674 164.536 464.005 165.205 463.178 165.205Z" fill="black"/>
<path d="M386.694 10.1476C386.694 7.25613 389.038 4.91211 391.93 4.91211H432.941C435.833 4.91211 438.177 7.25613 438.177 10.1476V20.6186C438.177 23.5101 435.833 25.8542 432.941 25.8542H391.93C389.038 25.8542 386.694 23.5101 386.694 20.6186V10.1476Z" fill="#002C86"/>
<path d="M421.714 18.9442C421.54 18.9442 421.403 18.8976 421.304 18.8046C421.205 18.7057 421.156 18.5661 421.156 18.3857V17.7051H419.001C418.82 17.7051 418.675 17.6673 418.564 17.5917C418.46 17.516 418.407 17.3968 418.407 17.2339C418.407 17.1408 418.43 17.039 418.477 16.9285C418.529 16.818 418.62 16.6725 418.748 16.4922L421.138 13.028C421.22 12.9059 421.31 12.8128 421.409 12.7488C421.508 12.6848 421.621 12.6528 421.749 12.6528C421.9 12.6528 422.026 12.6994 422.124 12.7924C422.223 12.8797 422.273 13.0193 422.273 13.2113V16.7802H422.7C422.869 16.7802 422.994 16.8209 423.076 16.9023C423.163 16.9779 423.206 17.0914 423.206 17.2426C423.206 17.3939 423.163 17.5102 423.076 17.5917C422.994 17.6673 422.869 17.7051 422.7 17.7051H422.273V18.3857C422.273 18.5661 422.223 18.7057 422.124 18.8046C422.026 18.8976 421.889 18.9442 421.714 18.9442ZM421.156 16.7802V14.0577H421.409L419.35 17.0768V16.7802H421.156Z" fill="white"/>
<path d="M414.083 18.8738C413.897 18.8738 413.76 18.833 413.673 18.7516C413.591 18.6643 413.551 18.5393 413.551 18.3764C413.551 18.2775 413.577 18.1815 413.629 18.0884C413.682 17.9954 413.757 17.8965 413.856 17.7917L415.61 15.9244C415.878 15.6452 416.07 15.3921 416.186 15.1653C416.302 14.9326 416.36 14.6999 416.36 14.4672C416.36 14.1763 416.267 13.9553 416.081 13.804C415.901 13.6528 415.636 13.5772 415.287 13.5772C415.089 13.5772 414.892 13.6062 414.694 13.6644C414.496 13.7168 414.295 13.8098 414.092 13.9436C413.987 14.0135 413.888 14.0425 413.795 14.0309C413.708 14.0193 413.629 13.9815 413.559 13.9175C413.495 13.8535 413.452 13.7749 413.429 13.6819C413.405 13.5888 413.408 13.4957 413.437 13.4026C413.472 13.3037 413.542 13.2194 413.647 13.1496C413.897 12.9809 414.176 12.8529 414.484 12.7657C414.799 12.6784 415.113 12.6348 415.427 12.6348C415.869 12.6348 416.241 12.7017 416.544 12.8355C416.846 12.9693 417.076 13.1641 417.233 13.4201C417.39 13.6761 417.469 13.9873 417.469 14.3538C417.469 14.5981 417.428 14.8366 417.347 15.0693C417.271 15.302 417.152 15.5376 416.989 15.7761C416.832 16.0146 416.625 16.2676 416.369 16.5352L414.729 18.2455V17.9488H417.294C417.451 17.9488 417.57 17.9866 417.652 18.0622C417.733 18.1379 417.774 18.2513 417.774 18.4026C417.774 18.5538 417.733 18.6701 417.652 18.7516C417.57 18.833 417.451 18.8738 417.294 18.8738H414.083Z" fill="white"/>
<path d="M410.35 18.961C409.623 18.961 409.067 18.6876 408.683 18.1408C408.299 17.5881 408.107 16.8028 408.107 15.7848C408.107 15.0984 408.192 14.5225 408.36 14.0571C408.535 13.5859 408.788 13.231 409.12 12.9925C409.457 12.754 409.867 12.6348 410.35 12.6348C411.083 12.6348 411.638 12.9024 412.017 13.4375C412.401 13.9727 412.593 14.7522 412.593 15.7761C412.593 16.4567 412.505 17.0355 412.331 17.5125C412.162 17.9837 411.912 18.3444 411.58 18.5945C411.249 18.8388 410.839 18.961 410.35 18.961ZM410.35 18.0448C410.746 18.0448 411.036 17.8616 411.223 17.4951C411.415 17.1286 411.511 16.5556 411.511 15.7761C411.511 14.9966 411.415 14.4323 411.223 14.0833C411.036 13.7284 410.746 13.551 410.35 13.551C409.96 13.551 409.669 13.7284 409.477 14.0833C409.285 14.4323 409.189 14.9966 409.189 15.7761C409.189 16.5556 409.285 17.1286 409.477 17.4951C409.669 17.8616 409.96 18.0448 410.35 18.0448Z" fill="white"/>
<path d="M403.706 18.8738C403.52 18.8738 403.383 18.833 403.296 18.7516C403.215 18.6643 403.174 18.5393 403.174 18.3764C403.174 18.2775 403.2 18.1815 403.252 18.0884C403.305 17.9954 403.38 17.8965 403.479 17.7917L405.233 15.9244C405.501 15.6452 405.693 15.3921 405.809 15.1653C405.925 14.9326 405.984 14.6999 405.984 14.4672C405.984 14.1763 405.89 13.9553 405.704 13.804C405.524 13.6528 405.259 13.5772 404.91 13.5772C404.712 13.5772 404.515 13.6062 404.317 13.6644C404.119 13.7168 403.918 13.8098 403.715 13.9436C403.61 14.0135 403.511 14.0425 403.418 14.0309C403.331 14.0193 403.252 13.9815 403.183 13.9175C403.119 13.8535 403.075 13.7749 403.052 13.6819C403.028 13.5888 403.031 13.4957 403.06 13.4026C403.095 13.3037 403.165 13.2194 403.27 13.1496C403.52 12.9809 403.799 12.8529 404.107 12.7657C404.422 12.6784 404.736 12.6348 405.05 12.6348C405.492 12.6348 405.864 12.7017 406.167 12.8355C406.469 12.9693 406.699 13.1641 406.856 13.4201C407.013 13.6761 407.092 13.9873 407.092 14.3538C407.092 14.5981 407.051 14.8366 406.97 15.0693C406.894 15.302 406.775 15.5376 406.612 15.7761C406.455 16.0146 406.248 16.2676 405.992 16.5352L404.352 18.2455V17.9488H406.917C407.074 17.9488 407.194 17.9866 407.275 18.0622C407.356 18.1379 407.397 18.2513 407.397 18.4026C407.397 18.5538 407.356 18.6701 407.275 18.7516C407.194 18.833 407.074 18.8738 406.917 18.8738H403.706Z" fill="white"/>
<mask id="mask0_1900_742" style="mask-type:luminance" maskUnits="userSpaceOnUse" x="448" y="4" width="22" height="22">
<path d="M448.651 4.91244H469.593V25.8545H448.651V4.91244Z" fill="white"/>
</mask>
<g mask="url(#mask0_1900_742)">
<path fill-rule="evenodd" clip-rule="evenodd" d="M448.651 15.3835C448.651 21.1438 453.362 25.8545 459.122 25.8545C464.883 25.8545 469.593 21.1438 469.593 15.3835C469.593 9.62308 464.883 4.91244 459.122 4.91244C453.362 4.91244 448.651 9.62308 448.651 15.3835ZM459.122 24.6274C454.04 24.6274 449.878 20.4662 449.878 15.3835C449.878 10.3008 454.04 6.13951 459.122 6.13951C464.205 6.13951 468.366 10.3008 468.366 15.3835C468.366 20.4662 464.205 24.6274 459.122 24.6274Z" fill="#D1DEFF"/>
<path fill-rule="evenodd" clip-rule="evenodd" d="M455.079 22.6189C456.004 24.4685 457.396 25.855 459.121 25.855C460.846 25.855 462.238 24.4685 463.163 22.6189C464.107 20.7309 464.673 18.1693 464.673 15.384C464.673 12.5986 464.107 10.037 463.163 8.14901C462.238 6.29945 460.846 4.91293 459.121 4.91293C457.396 4.91293 456.004 6.29945 455.079 8.14901C454.136 10.037 453.569 12.5986 453.569 15.384C453.569 18.1693 454.136 20.7309 455.079 22.6189ZM456.184 22.0727C455.342 20.3872 454.803 18.0202 454.803 15.384C454.803 12.7478 455.342 10.3807 456.184 8.69526C457.046 6.97146 458.12 6.14 459.121 6.14C460.122 6.14 461.197 6.97146 462.058 8.69526C462.901 10.3807 463.439 12.7478 463.439 15.384C463.439 18.0202 462.901 20.3872 462.058 22.0727C461.197 23.7965 460.122 24.6279 459.121 24.6279C458.12 24.6279 457.046 23.7965 456.184 22.0727Z" fill="#D1DEFF"/>
<path fill-rule="evenodd" clip-rule="evenodd" d="M459.753 25.293V5.47532H458.488V25.293H459.753Z" fill="#D1DEFF"/>
<path fill-rule="evenodd" clip-rule="evenodd" d="M469.03 14.7512H449.212V16.0161H469.03V14.7512Z" fill="#D1DEFF"/>
<path fill-rule="evenodd" clip-rule="evenodd" d="M450.618 20.936H467.625V19.6711H450.618V20.936Z" fill="#D1DEFF"/>
<path fill-rule="evenodd" clip-rule="evenodd" d="M467.625 9.83124H450.618V11.0962H467.625V9.83124Z" fill="#D1DEFF"/>
</g>
<path fill-rule="evenodd" clip-rule="evenodd" d="M499.693 15.3828C499.693 20.4597 495.574 24.6486 490.531 24.6486C485.488 24.6486 481.369 20.4597 481.369 15.3828C481.369 10.3059 485.488 6.11698 490.531 6.11698C495.574 6.11698 499.693 10.3059 499.693 15.3828ZM490.531 4.80811C496.314 4.80811 501.002 9.59982 501.002 15.3828C501.002 21.1658 496.314 25.9575 490.531 25.9575C484.748 25.9575 480.06 21.1658 480.06 15.3828C480.06 9.59982 484.748 4.80811 490.531 4.80811Z" fill="#D1DEFF"/>
<path fill-rule="evenodd" clip-rule="evenodd" d="M488.036 12.5875C489.414 11.1958 491.65 11.1958 493.028 12.5879L493.028 12.588C494.109 13.6794 494.346 15.3 493.738 16.6283C493.733 16.6385 493.729 16.6487 493.725 16.659C493.721 16.6685 493.717 16.6782 493.713 16.6882C493.632 16.8901 493.515 17.1851 493.515 17.4991C493.515 17.721 493.566 17.9272 493.612 18.081C493.636 18.1608 493.662 18.2384 493.685 18.3051L493.685 18.3063C493.622 18.2844 493.549 18.2594 493.474 18.2363C493.323 18.1896 493.118 18.1359 492.896 18.1346L492.892 18.1346C492.58 18.1346 492.282 18.2566 492.086 18.3365C492.074 18.3416 492.062 18.3465 492.051 18.3511C492.04 18.3553 492.03 18.3597 492.02 18.3644C490.712 18.9756 489.115 18.7395 488.036 17.6492C486.654 16.2535 486.651 13.9855 488.036 12.5875ZM493.958 11.667C492.068 9.75754 488.996 9.75758 487.105 11.6666C485.216 13.5753 485.219 16.665 487.105 18.5701C488.582 20.0612 490.768 20.3862 492.558 19.5576C492.67 19.5124 492.744 19.4831 492.808 19.4632C492.863 19.446 492.887 19.4438 492.892 19.4435C492.92 19.4443 492.979 19.4532 493.089 19.4871C493.143 19.5038 493.199 19.5233 493.266 19.5465L493.282 19.5519C493.342 19.5726 493.411 19.5966 493.479 19.6183C493.619 19.6628 493.822 19.7201 494.039 19.7203C494.28 19.7204 494.563 19.649 494.795 19.4152L494.795 19.4149C495.026 19.1816 495.095 18.8991 495.095 18.661C495.095 18.4453 495.039 18.2424 494.995 18.1011C494.974 18.0332 494.951 17.9647 494.931 17.905C494.929 17.8988 494.927 17.8927 494.925 17.8867C494.902 17.8193 494.883 17.7618 494.866 17.7068C494.832 17.5912 494.823 17.5298 494.823 17.4991C494.823 17.4687 494.836 17.4066 494.935 17.1576C495.752 15.3566 495.433 13.1562 493.958 11.6671" fill="#D1DEFF"/>
<path opacity="0.4" fill-rule="evenodd" clip-rule="evenodd" d="M489.536 15.2949C489.536 14.933 489.243 14.6396 488.881 14.6396H488.876C488.514 14.6396 488.221 14.933 488.221 15.2949C488.221 15.6568 488.514 15.9502 488.876 15.9502H488.881C489.243 15.9502 489.536 15.6568 489.536 15.2949Z" fill="#D1DEFF"/>
<path opacity="0.4" fill-rule="evenodd" clip-rule="evenodd" d="M491.216 15.2949C491.216 14.933 490.922 14.6396 490.561 14.6396H490.556C490.194 14.6396 489.9 14.933 489.9 15.2949C489.9 15.6568 490.194 15.9502 490.556 15.9502H490.561C490.922 15.9502 491.216 15.6568 491.216 15.2949Z" fill="#D1DEFF"/>
<path opacity="0.4" fill-rule="evenodd" clip-rule="evenodd" d="M492.896 15.2949C492.896 14.933 492.602 14.6396 492.24 14.6396H492.235C491.873 14.6396 491.58 14.933 491.58 15.2949C491.58 15.6568 491.873 15.9502 492.235 15.9502H492.24C492.602 15.9502 492.896 15.6568 492.896 15.2949Z" fill="#D1DEFF"/>
<path fill-rule="evenodd" clip-rule="evenodd" d="M512.347 16.5169C512.347 21.819 516.645 26.1172 521.948 26.1172C527.25 26.1172 531.548 21.819 531.548 16.5169C531.548 11.2148 527.25 6.91653 521.948 6.91653C516.645 6.91653 512.347 11.2148 512.347 16.5169ZM521.948 6.04395C516.164 6.04395 511.475 10.7328 511.475 16.5169C511.475 22.3009 516.164 26.9898 521.948 26.9898C527.732 26.9898 532.42 22.3009 532.42 16.5169C532.42 10.7328 527.732 6.04395 521.948 6.04395Z" fill="#D1DEFF"/>
<path fill-rule="evenodd" clip-rule="evenodd" d="M518.381 14.9221C518.381 13.3332 519.838 11.6733 521.951 11.6733C524.063 11.6733 525.52 13.3332 525.52 14.9221C525.52 15.2526 525.562 15.4698 525.613 15.6264C525.664 15.7841 525.731 15.9075 525.825 16.0634C525.834 16.079 525.844 16.0954 525.854 16.1125C525.941 16.2567 526.058 16.4509 526.147 16.6833C526.252 16.9578 526.314 17.2699 526.314 17.6605C526.314 17.6794 526.313 17.6982 526.312 17.717C526.276 18.1314 526.15 18.5158 525.898 18.8426C525.647 19.1671 525.308 19.3866 524.925 19.5364C524.192 19.8236 523.179 19.8977 521.951 19.8977C520.723 19.8977 519.71 19.8249 518.977 19.5384C518.594 19.3889 518.255 19.1695 518.004 18.8444C517.751 18.5172 517.625 18.1322 517.589 17.7171C517.588 17.6982 517.587 17.6794 517.587 17.6605C517.587 17.2699 517.649 16.9578 517.754 16.6833C517.843 16.4509 517.96 16.2567 518.047 16.1125C518.057 16.0954 518.067 16.079 518.076 16.0634C518.17 15.9075 518.237 15.7841 518.288 15.6264C518.339 15.4698 518.381 15.2526 518.381 14.9221ZM521.951 12.9822C520.533 12.9822 519.689 14.0838 519.689 14.9221C519.689 15.3683 519.632 15.7235 519.534 16.0282C519.436 16.3318 519.305 16.5585 519.2 16.7347C519.191 16.7505 519.181 16.7658 519.173 16.7805C519.079 16.9367 519.022 17.0321 518.977 17.1505C518.935 17.2607 518.899 17.4056 518.896 17.6314C518.917 17.8356 518.974 17.9593 519.039 18.0443C519.11 18.1352 519.23 18.232 519.453 18.3192C519.931 18.5062 520.717 18.5888 521.951 18.5888C523.183 18.5888 523.969 18.5051 524.448 18.3176C524.672 18.2301 524.792 18.1331 524.862 18.0421C524.928 17.9571 524.984 17.834 525.005 17.6313C525.002 17.4056 524.966 17.2607 524.924 17.1505C524.879 17.0321 524.822 16.9368 524.728 16.7805C524.72 16.7658 524.71 16.7505 524.701 16.7347C524.596 16.5585 524.465 16.3318 524.367 16.0282C524.269 15.7235 524.212 15.3683 524.212 14.9221C524.212 14.0838 523.368 12.9822 521.951 12.9822Z" fill="#D1DEFF"/>
<path opacity="0.4" fill-rule="evenodd" clip-rule="evenodd" d="M520.429 20.07C520.698 19.8284 521.112 19.8505 521.353 20.1194C521.692 20.496 522.167 20.494 522.505 20.1188C522.747 19.8503 523.161 19.8286 523.429 20.0705C523.698 20.3124 523.719 20.7262 523.477 20.9947C522.625 21.9415 521.243 21.9552 520.38 20.9942C520.138 20.7253 520.16 20.3116 520.429 20.07Z" fill="#D1DEFF"/>
<path d="M530.675 7.61491C530.675 8.28971 530.128 8.83675 529.453 8.83675C528.778 8.83675 528.231 8.28971 528.231 7.61491C528.231 6.9401 528.778 6.39307 529.453 6.39307C530.128 6.39307 530.675 6.9401 530.675 7.61491Z" fill="#D1DEFF"/>
<path fill-rule="evenodd" clip-rule="evenodd" d="M529.454 6.21908C528.683 6.21908 528.058 6.84405 528.058 7.61499C528.058 8.38593 528.683 9.0109 529.454 9.0109C530.225 9.0109 530.85 8.38593 530.85 7.61499C530.85 6.84405 530.225 6.21908 529.454 6.21908ZM533.293 7.61499C533.293 9.73554 531.574 11.4546 529.454 11.4546C527.333 11.4546 525.614 9.73554 525.614 7.61499C525.614 5.49444 527.333 3.77539 529.454 3.77539C531.574 3.77539 533.293 5.49444 533.293 7.61499Z" fill="white"/>
<path d="M554.237 4.91211C548.454 4.91211 543.766 9.60035 543.766 15.3831C543.766 21.1659 548.454 25.8542 554.237 25.8542C560.019 25.8542 564.708 21.1659 564.708 15.3831C564.708 9.60035 560.019 4.91211 554.237 4.91211ZM554.237 8.1025C554.98 8.1025 555.707 8.32293 556.325 8.73593C556.943 9.14892 557.425 9.73592 557.709 10.4227C557.994 11.1095 558.068 11.8652 557.923 12.5943C557.778 13.3234 557.42 13.9931 556.894 14.5187C556.369 15.0443 555.699 15.4023 554.97 15.5473C554.241 15.6924 553.485 15.6179 552.798 15.3335C552.112 15.049 551.525 14.5672 551.112 13.9492C550.699 13.3311 550.478 12.6044 550.478 11.861C550.478 10.8642 550.874 9.90821 551.579 9.20335C552.284 8.49849 553.24 8.1025 554.237 8.1025ZM560.52 20.6219C559.752 21.5428 558.792 22.2838 557.706 22.7922C556.62 23.3006 555.436 23.5642 554.237 23.5642C553.038 23.5642 551.853 23.3006 550.768 22.7922C549.682 22.2838 548.721 21.5428 547.953 20.6219C547.849 20.4975 547.776 20.3504 547.74 20.1925C547.703 20.0346 547.705 19.8704 547.743 19.7131C548.1 18.2672 548.928 16.9815 550.098 16.0597C550.272 15.9229 550.487 15.8471 550.708 15.8439C550.93 15.8408 551.147 15.9104 551.325 16.0421C552.102 16.62 553.121 16.9701 554.235 16.9701C555.349 16.9701 556.368 16.62 557.145 16.0421C557.324 15.9104 557.54 15.8408 557.762 15.8439C557.983 15.8471 558.198 15.9229 558.372 16.0597C559.542 16.9815 560.37 18.2672 560.727 19.7131C560.766 19.8701 560.768 20.0342 560.732 20.1921C560.696 20.35 560.623 20.4972 560.52 20.6219Z" fill="#D1DEFF"/>
<defs>
<linearGradient id="paint0_linear_1900_742" x1="337.975" y1="355.051" x2="337.975" y2="411.135" gradientUnits="userSpaceOnUse">
<stop stop-color="#C5E8FD"/>
<stop offset="1" stop-color="#D3EFFF" stop-opacity="0"/>
</linearGradient>
<linearGradient id="paint1_linear_1900_742" x1="337.631" y1="341.831" x2="337.631" y2="412.499" gradientUnits="userSpaceOnUse">
<stop stop-color="#79ED9D"/>
<stop offset="1" stop-color="#FFF8DE" stop-opacity="0"/>
</linearGradient>
</defs>
</svg>
